<svg width="131" height="18" viewBox="0 0 131 18" fill="none" xmlns="http://www.w3.org/2000/svg">
<rect x="97.05" y="0.56416" width="33.9" height="14.0017" rx="5.95" fill="black" stroke="white" stroke-width="0.1"/>
<path d="M98 6.10181C98 3.34039 100.239 1.10181 103 1.10181H109V14.0284H103C100.239 14.0284 98 11.7898 98 9.02836V6.10181Z" fill="black"/>
<path d="M109 1.10181H119V14.0284H109V1.10181Z" fill="#FFCD00"/>
<path d="M119 1.10181H125C127.761 1.10181 130 3.34038 130 6.10181V9.02836C130 11.7898 127.761 14.0284 125 14.0284H119V1.10181Z" fill="#C8102E"/>
<path d="M8.11523 5.89307H7.95898C7.86784 5.19645 7.56185 4.58773 7.04102 4.06689C6.52669 3.53955 5.84635 3.27588 5 3.27588C4.44661 3.27588 3.95508 3.40609 3.52539 3.6665C3.0957 3.92692 2.76367 4.28174 2.5293 4.73096C2.29492 5.18018 2.17773 5.6945 2.17773 6.27393C2.17773 6.72314 2.24609 7.12354 2.38281 7.4751C2.52604 7.82015 2.73438 8.12614 3.00781 8.39307C3.28125 8.65999 3.60352 8.91064 3.97461 9.14502C4.3457 9.37288 4.84701 9.6626 5.47852 10.0142C6.5332 10.5936 7.35352 11.173 7.93945 11.7524C8.52539 12.3254 8.81836 13.1131 8.81836 14.1157C8.81836 14.7277 8.65885 15.3201 8.33984 15.8931C8.02734 16.4595 7.55208 16.925 6.91406 17.2896C6.27604 17.6541 5.48503 17.8364 4.54102 17.8364C3.94857 17.8364 3.42448 17.7713 2.96875 17.6411C2.51302 17.5174 2.05078 17.3416 1.58203 17.1138C1.38672 17.0487 1.25326 17.0161 1.18164 17.0161C1.04492 17.0161 0.953776 17.0649 0.908203 17.1626C0.869141 17.2603 0.813802 17.4718 0.742188 17.7974H0.576172V14.1938H0.742188C0.976562 15.2485 1.43229 16.0461 2.10938 16.5864C2.78646 17.1268 3.61003 17.397 4.58008 17.397C5.30924 17.397 5.89193 17.2603 6.32812 16.9868C6.77083 16.7134 7.07682 16.3813 7.24609 15.9907C7.41536 15.6001 7.5 15.2095 7.5 14.8188C7.5 14.0116 7.2526 13.354 6.75781 12.8462C6.26953 12.3319 5.52409 11.8078 4.52148 11.2739C3.83138 10.8963 3.32031 10.6034 2.98828 10.395C2.65625 10.1867 2.31771 9.9165 1.97266 9.58447C1.63411 9.25244 1.36393 8.86182 1.16211 8.4126C0.960286 7.95687 0.859375 7.43604 0.859375 6.8501C0.859375 6.17301 1.03841 5.52523 1.39648 4.90674C1.75456 4.28825 2.26237 3.79346 2.91992 3.42236C3.57747 3.04476 4.32292 2.85596 5.15625 2.85596C5.78776 2.85596 6.43555 2.96338 7.09961 3.17822C7.20378 3.23031 7.34375 3.25635 7.51953 3.25635C7.73438 3.25635 7.88086 3.10986 7.95898 2.81689H8.11523V5.89307ZM21.3379 9.71143V4.89697C21.3379 4.42822 21.2109 4.04411 20.957 3.74463C20.7031 3.44515 20.3092 3.29541 19.7754 3.29541V3.12939H24.3555V3.29541C23.8216 3.29541 23.431 3.44515 23.1836 3.74463C22.9362 4.0376 22.8125 4.42171 22.8125 4.89697V15.7759C22.8125 16.8306 23.3268 17.3579 24.3555 17.3579V17.5142H19.7754V17.3579C20.2637 17.3579 20.6445 17.2277 20.918 16.9673C21.1979 16.7004 21.3379 16.3097 21.3379 15.7954V10.1509H13.0957V15.7759C13.0957 16.2772 13.2357 16.6678 13.5156 16.9478C13.8021 17.2212 14.1829 17.3579 14.6582 17.3579V17.5142H10.0781V17.3579C10.5729 17.3579 10.9505 17.2212 11.2109 16.9478C11.4779 16.6678 11.6113 16.2772 11.6113 15.7759V4.89697C11.6113 3.82926 11.1003 3.29541 10.0781 3.29541V3.12939H14.6582V3.29541C14.1178 3.29541 13.7207 3.44515 13.4668 3.74463C13.2194 4.0376 13.0957 4.42171 13.0957 4.89697V9.71143H21.3379ZM41.2598 10.3364C41.2598 11.6841 40.9245 12.9373 40.2539 14.0962C39.5898 15.255 38.6816 16.1795 37.5293 16.8696C36.377 17.5532 35.1009 17.895 33.7012 17.895C32.2949 17.895 31.0059 17.5532 29.834 16.8696C28.6621 16.1795 27.7376 15.2518 27.0605 14.0864C26.39 12.9211 26.0547 11.6515 26.0547 10.2778C26.0547 9.22314 26.2533 8.23356 26.6504 7.30908C27.054 6.37809 27.6139 5.56755 28.3301 4.87744C29.0527 4.18734 29.873 3.65348 30.791 3.27588C31.7155 2.89827 32.679 2.70947 33.6816 2.70947C34.6647 2.70947 35.6087 2.89176 36.5137 3.25635C37.4186 3.61442 38.2292 4.13525 38.9453 4.81885C39.668 5.50244 40.2344 6.31299 40.6445 7.25049C41.0547 8.18799 41.2598 9.21663 41.2598 10.3364ZM39.541 10.3755C39.541 8.46143 39.2025 6.96403 38.5254 5.8833C37.8483 4.80257 37.0671 4.07992 36.1816 3.71533C35.2962 3.34424 34.4629 3.15869 33.6816 3.15869C33.0762 3.15869 32.4479 3.2596 31.7969 3.46143C31.1458 3.65674 30.5111 4.01807 29.8926 4.54541C29.2806 5.07275 28.776 5.81494 28.3789 6.77197C27.9818 7.729 27.7832 8.91064 27.7832 10.3169C27.7832 11.5539 27.946 12.6346 28.2715 13.5591C28.6035 14.4771 29.056 15.229 29.6289 15.8149C30.2083 16.3944 30.8431 16.8143 31.5332 17.0747C32.2298 17.3286 32.9525 17.4556 33.7012 17.4556C34.3717 17.4556 35.0488 17.3384 35.7324 17.104C36.4225 16.8631 37.0508 16.4757 37.6172 15.9419C38.1901 15.4015 38.6523 14.6724 39.0039 13.7544C39.362 12.8299 39.541 11.7036 39.541 10.3755ZM43.0859 3.29541V3.12939H47.8027C48.5905 3.12939 49.2839 3.23682 49.8828 3.45166C50.4883 3.6665 50.9896 3.95947 51.3867 4.33057C51.7904 4.70166 52.0898 5.12158 52.2852 5.59033C52.487 6.05257 52.5879 6.54085 52.5879 7.05518C52.5879 7.55648 52.4935 8.0415 52.3047 8.51025C52.1224 8.97249 51.8327 9.3859 51.4355 9.75049C51.0384 10.1086 50.5176 10.395 49.873 10.6099C49.2285 10.8247 48.4863 10.9321 47.6465 10.9321C47.3796 10.9321 46.8652 10.8931 46.1035 10.8149V15.7759C46.1035 16.798 46.6243 17.3254 47.666 17.3579V17.5142H43.0859V17.3579C43.5352 17.3449 43.903 17.2179 44.1895 16.9771C44.4824 16.7297 44.6289 16.3293 44.6289 15.7759V4.89697C44.6289 4.56494 44.5768 4.28825 44.4727 4.06689C44.3685 3.84554 44.2448 3.68929 44.1016 3.59814C43.9648 3.50049 43.8086 3.42887 43.6328 3.3833C43.4635 3.33773 43.3464 3.30843 43.2812 3.29541H43.0859ZM46.1035 3.63721V10.4146C46.6048 10.5057 47.0996 10.5513 47.5879 10.5513C48.5189 10.5513 49.3066 10.3136 49.9512 9.83838C50.6022 9.35661 50.9277 8.46794 50.9277 7.17236C50.9277 6.10465 50.6413 5.229 50.0684 4.54541C49.502 3.85531 48.6393 3.51025 47.4805 3.51025C47.0312 3.51025 46.5723 3.55257 46.1035 3.63721ZM65.1465 3.12939V3.29541C64.7168 3.29541 64.3522 3.41585 64.0527 3.65674C63.7533 3.89762 63.6035 4.29801 63.6035 4.85791V15.7759C63.6035 16.3293 63.763 16.7329 64.082 16.9868C64.401 17.2342 64.7559 17.3579 65.1465 17.3579V17.5142H60.5859V17.3579C61.0026 17.3579 61.3607 17.2375 61.6602 16.9966C61.9661 16.7492 62.1191 16.3423 62.1191 15.7759V4.85791C62.1191 4.25895 61.9661 3.8488 61.6602 3.62744C61.3607 3.40609 61.0026 3.29541 60.5859 3.29541V3.12939H65.1465ZM81.4941 3.12939V3.29541C81.1296 3.34098 80.8398 3.4126 80.625 3.51025C80.4167 3.6014 80.2539 3.78695 80.1367 4.06689C80.0195 4.34033 79.9609 4.73747 79.9609 5.2583V17.8755H79.8633L68.8184 5.55127V14.3989C68.8184 15.1346 68.8477 15.6815 68.9062 16.0396C68.9648 16.3976 69.0495 16.6548 69.1602 16.811C69.401 17.1496 69.821 17.3319 70.4199 17.3579V17.5142H66.8164V17.3579C67.2201 17.3384 67.5326 17.2537 67.7539 17.104C67.9818 16.9478 68.1413 16.6678 68.2324 16.2642C68.3301 15.854 68.3789 15.2388 68.3789 14.4185V5.03369L67.9004 4.49658C67.4772 4.01481 67.1387 3.71208 66.8848 3.58838C66.6309 3.45817 66.3151 3.36051 65.9375 3.29541V3.12939H68.6426L79.5215 15.3169V6.02979C79.5215 5.33317 79.4922 4.81234 79.4336 4.46729C79.3815 4.12223 79.235 3.84554 78.9941 3.63721C78.7598 3.42887 78.3887 3.31494 77.8809 3.29541V3.12939H81.4941ZM90.293 17.895C90.0391 17.895 89.8275 17.8104 89.6582 17.6411C89.4889 17.4718 89.4043 17.2635 89.4043 17.0161C89.4043 16.7622 89.4857 16.5506 89.6484 16.3813C89.8177 16.2056 90.0326 16.1177 90.293 16.1177C90.5534 16.1177 90.7682 16.2023 90.9375 16.3716C91.1068 16.5409 91.1914 16.7557 91.1914 17.0161C91.1914 17.27 91.1035 17.4784 90.9277 17.6411C90.7585 17.8104 90.5469 17.895 90.293 17.895ZM90.293 11.5376C90.0391 11.5376 89.8275 11.453 89.6582 11.2837C89.4889 11.1144 89.4043 10.9061 89.4043 10.6587C89.4043 10.4113 89.4857 10.1997 89.6484 10.0239C89.8177 9.84163 90.0326 9.75049 90.293 9.75049C90.5534 9.75049 90.7682 9.83838 90.9375 10.0142C91.1068 10.1899 91.1914 10.4048 91.1914 10.6587C91.1914 10.9126 91.1035 11.1242 90.9277 11.2935C90.7585 11.4562 90.5469 11.5376 90.293 11.5376Z" fill="white"/>
</svg>
