<svg width="40" height="40" viewBox="0 0 40 40" fill="none" xmlns="http://www.w3.org/2000/svg">
<path d="M28.3333 30C26.4833 30 25 31.4833 25 33.3333C25 34.2174 25.3512 35.0652 25.9763 35.6904C26.6014 36.3155 27.4493 36.6667 28.3333 36.6667C29.2174 36.6667 30.0652 36.3155 30.6903 35.6904C31.3155 35.0652 31.6667 34.2174 31.6667 33.3333C31.6667 32.4493 31.3155 31.6014 30.6903 30.9763C30.0652 30.3512 29.2174 30 28.3333 30ZM1.66666 3.33334V6.66668H4.99999L11 19.3167L8.73332 23.4C8.48332 23.8667 8.33332 24.4167 8.33332 25C8.33332 25.8841 8.68451 26.7319 9.30963 27.357C9.93475 27.9822 10.7826 28.3333 11.6667 28.3333H31.6667V25H12.3667C12.2561 25 12.1502 24.9561 12.072 24.878C11.9939 24.7998 11.95 24.6938 11.95 24.5833C11.95 24.5 11.9667 24.4333 12 24.3833L13.5 21.6667H25.9167C27.1667 21.6667 28.2667 20.9667 28.8333 19.95L34.8 9.16668C34.9167 8.90001 35 8.61668 35 8.33334C35 7.89132 34.8244 7.46739 34.5118 7.15483C34.1993 6.84227 33.7753 6.66668 33.3333 6.66668H8.68332L7.11666 3.33334M11.6667 30C9.81666 30 8.33332 31.4833 8.33332 33.3333C8.33332 34.2174 8.68451 35.0652 9.30963 35.6904C9.93475 36.3155 10.7826 36.6667 11.6667 36.6667C12.5507 36.6667 13.3986 36.3155 14.0237 35.6904C14.6488 35.0652 15 34.2174 15 33.3333C15 32.4493 14.6488 31.6014 14.0237 30.9763C13.3986 30.3512 12.5507 30 11.6667 30Z" fill="black"/>
</svg>
