<svg width="3O" height="20" viewBox="0 0 42 28" fill="none" xmlns="http://www.w3.org/2000/svg">
<path d="M14.5833 27.0833L11.6667 24.1667L15.3125 20.4167C10.8681 19.8264 7.20486 18.6111 4.32292 16.7708C1.44097 14.9306 0 12.8125 0 10.4167C0 7.53472 2.00556 5.07778 6.01667 3.04583C10.0278 1.01389 14.9667 -0.00138747 20.8333 1.42304e-06C26.7014 1.42304e-06 31.641 1.01597 35.6521 3.04792C39.6632 5.07986 41.6681 7.53611 41.6667 10.4167C41.6667 12.5694 40.5118 14.4965 38.2021 16.1979C35.8924 17.8993 32.8806 19.1667 29.1667 20V15.7292C31.8403 15.0347 33.8979 14.175 35.3396 13.15C36.7813 12.125 37.5014 11.2139 37.5 10.4167C37.5 9.30556 36.0153 7.98611 33.0458 6.45834C30.0764 4.93056 26.0056 4.16667 20.8333 4.16667C15.6597 4.16667 11.5882 4.93056 8.61875 6.45834C5.64931 7.98611 4.16528 9.30556 4.16667 10.4167C4.16667 11.25 5.05208 12.2486 6.82292 13.4125C8.59375 14.5764 11.1111 15.4528 14.375 16.0417L11.6667 13.3333L14.5833 10.4167L22.9167 18.75L14.5833 27.0833Z" fill="black"/>
</svg>
