<svg width="463" height="51" viewBox="0 0 463 51" fill="none" xmlns="http://www.w3.org/2000/svg">
<path d="M36.0801 14.3975H35.6738C35.1322 11.96 33.6934 10.0726 31.3574 8.73535C29.0215 7.38118 26.3555 6.7041 23.3594 6.7041C21.8021 6.7041 20.1263 6.94954 18.332 7.44043C16.5547 7.91439 14.8197 8.78613 13.127 10.0557C11.4342 11.3252 10.0293 13.1702 8.91211 15.5908C7.79492 17.9945 7.23633 21.0244 7.23633 24.6807C7.23633 30.5036 8.59049 35.1585 11.2988 38.6455C14.0241 42.1325 18.3913 43.876 24.4004 43.876C26.7702 43.876 28.5137 43.7152 29.6309 43.3936C30.748 43.0719 31.459 42.6318 31.7637 42.0732C32.0853 41.5146 32.2461 40.7614 32.2461 39.8135V32.958C32.2461 31.333 31.8906 30.2581 31.1797 29.7334C30.4857 29.2087 29.4362 28.8617 28.0312 28.6924V28.2607H40.1934V28.6924C39.0762 28.8109 38.2129 29.0563 37.6035 29.4287C36.9941 29.7842 36.5879 30.2497 36.3848 30.8252C36.1816 31.4007 36.0801 32.1624 36.0801 33.1104V43.5205C32.3561 44.5192 28.5137 45.0186 24.5527 45.0186C22.5046 45.0186 20.4818 44.8493 18.4844 44.5107C16.487 44.1722 14.4049 43.4189 12.2383 42.251C10.0716 41.083 8.15885 39.3564 6.5 37.0713C4.01172 33.6351 2.76758 29.7503 2.76758 25.417C2.76758 22.8949 3.23307 20.4404 4.16406 18.0537C5.11198 15.667 6.46615 13.5342 8.22656 11.6553C10.0039 9.75944 12.1706 8.26986 14.7266 7.18652C17.2826 6.08626 20.1178 5.53613 23.2324 5.53613C24.4342 5.53613 25.6107 5.62077 26.7617 5.79004C27.9128 5.94238 29.6309 6.264 31.916 6.75488C32.8132 6.95801 33.4564 7.05957 33.8457 7.05957C34.6751 7.05957 35.2845 6.64486 35.6738 5.81543H36.0801V14.3975ZM42.9102 7.16113H42.4023V6.62793H55.3516C57.4336 6.62793 59.194 6.94954 60.6328 7.59277C62.0885 8.236 63.2142 9.05697 64.0098 10.0557C64.8223 11.0374 65.3978 12.0785 65.7363 13.1787C66.0918 14.279 66.2695 15.3623 66.2695 16.4287C66.2695 17.7829 65.9818 19.0863 65.4062 20.3389C64.8477 21.5745 63.9759 22.641 62.791 23.5381C61.623 24.4352 60.1589 25.0446 58.3984 25.3662V25.4678C60.6328 26.5511 62.6979 28.7008 64.5938 31.917L67.9707 37.6299C69.4941 40.1859 70.7129 41.8024 71.627 42.4795C72.5579 43.1566 73.472 43.5374 74.3691 43.6221V44.0283H67.5645C67.2767 43.6559 67.0059 43.3005 66.752 42.9619C66.498 42.6064 66.2272 42.234 65.9395 41.8447C65.7702 41.5908 65.5163 41.21 65.1777 40.7021C64.8561 40.1774 64.6615 39.8812 64.5938 39.8135L60.125 32.4248C59.2279 30.9183 58.3053 29.6995 57.3574 28.7686C56.4264 27.8206 55.5547 27.1436 54.7422 26.7373C53.9297 26.3311 53.1934 26.0771 52.5332 25.9756C51.89 25.874 51.1283 25.8232 50.248 25.8232V39.5088C50.248 42.1663 51.6022 43.5374 54.3105 43.6221V44.0283H42.4023V43.6221C43.1471 43.5882 43.8073 43.4528 44.3828 43.2158C44.9583 42.9619 45.4323 42.5387 45.8047 41.9463C46.194 41.3369 46.3887 40.5244 46.3887 39.5088V11.2236C46.3887 9.73405 46.0247 8.68457 45.2969 8.0752C44.569 7.46582 43.7734 7.16113 42.9102 7.16113ZM50.248 24.833H52.3809C54.6152 24.833 56.4434 24.5114 57.8652 23.8682C59.304 23.2249 60.3451 22.3109 60.9883 21.126C61.6315 19.9242 61.9531 18.46 61.9531 16.7334C61.9531 15.2946 61.6654 13.8896 61.0898 12.5186C60.5143 11.1305 59.5326 9.97103 58.1445 9.04004C56.7734 8.09212 54.9199 7.61816 52.584 7.61816C51.6361 7.61816 50.8574 7.69434 50.248 7.84668V24.833ZM93.666 6.1709L104.863 38.2139C105.456 39.8727 106.014 41.0745 106.539 41.8193C107.064 42.5641 107.563 43.0381 108.037 43.2412C108.528 43.4274 109.146 43.5544 109.891 43.6221V44.0283H97.6777V43.6221C98.9303 43.6221 99.8952 43.5036 100.572 43.2666C101.249 43.0296 101.588 42.3864 101.588 41.3369C101.588 40.7614 101.427 39.9912 101.105 39.0264C101.038 38.891 101.004 38.7894 101.004 38.7217L97.6777 28.7939H84.7285L81.7578 37.9854C81.3516 39.238 81.1484 40.2451 81.1484 41.0068C81.1484 42.0563 81.4108 42.7588 81.9355 43.1143C82.4603 43.4528 83.2051 43.6221 84.1699 43.6221V44.0283H75.3848V43.6221C76.6374 43.5036 77.6361 43.0296 78.3809 42.2002C79.1426 41.3538 79.8027 40.0758 80.3613 38.3662L90.9238 6.1709H93.666ZM85.1602 27.4482H97.0684L90.9746 9.7002H90.873L85.1602 27.4482ZM151.15 6.62793V7.05957C150.202 7.17806 149.449 7.36426 148.891 7.61816C148.349 7.85514 147.926 8.33757 147.621 9.06543C147.316 9.77637 147.164 10.8089 147.164 12.1631V44.9678H146.91L118.193 12.9248V35.9287C118.193 37.8415 118.27 39.2633 118.422 40.1943C118.574 41.1253 118.794 41.7939 119.082 42.2002C119.708 43.0804 120.8 43.5544 122.357 43.6221V44.0283H112.988V43.6221C114.038 43.5713 114.85 43.3512 115.426 42.9619C116.018 42.5557 116.433 41.8278 116.67 40.7783C116.924 39.7119 117.051 38.1123 117.051 35.9795V11.5791L115.807 10.1826C114.706 8.93001 113.826 8.1429 113.166 7.82129C112.506 7.48275 111.685 7.22884 110.703 7.05957V6.62793H117.736L146.021 38.3154V14.1689C146.021 12.3577 145.945 11.0036 145.793 10.1064C145.658 9.20931 145.277 8.48991 144.65 7.94824C144.041 7.40658 143.076 7.11035 141.756 7.05957V6.62793H151.15ZM154.781 7.05957V6.62793H169.178C171.192 6.62793 173.046 6.80566 174.738 7.16113C176.448 7.49967 177.971 7.95671 179.309 8.53223C180.663 9.10775 181.831 9.74251 182.812 10.4365C183.794 11.1136 184.624 11.8076 185.301 12.5186C186.486 13.7035 187.493 15.0238 188.322 16.4795C189.152 17.9183 189.77 19.4417 190.176 21.0498C190.599 22.6579 190.811 24.3167 190.811 26.0264C190.811 27.736 190.607 29.361 190.201 30.9014C189.795 32.4417 189.211 33.8721 188.449 35.1924C187.688 36.4958 186.773 37.6807 185.707 38.7471C184.658 39.8135 183.43 40.7783 182.025 41.6416C180.824 42.3525 179.444 42.9281 177.887 43.3682C176.329 43.8083 174.222 44.0283 171.564 44.0283H154.781V43.6221H155.289C156.457 43.6221 157.329 43.182 157.904 42.3018C158.48 41.4215 158.768 40.4906 158.768 39.5088V11.2744C158.768 10.3265 158.607 9.53092 158.285 8.8877C157.98 8.24447 157.566 7.77897 157.041 7.49121C156.516 7.20345 155.932 7.05957 155.289 7.05957H154.781ZM162.627 8.40527V38.0361C162.627 39.4919 162.855 40.5667 163.312 41.2607C163.786 41.9378 164.514 42.3779 165.496 42.5811C166.478 42.7842 167.917 42.8857 169.812 42.8857C172.521 42.8857 174.806 42.6234 176.668 42.0986C178.53 41.557 180.333 40.3636 182.076 38.5186C183.363 37.1475 184.395 35.4717 185.174 33.4912C185.952 31.5107 186.342 29.1156 186.342 26.3057C186.342 24.0882 186.029 21.8962 185.402 19.7295C184.776 17.5459 183.82 15.6077 182.533 13.915C181.094 12.0023 179.241 10.5042 176.973 9.4209C174.721 8.33757 172.005 7.7959 168.822 7.7959C167.18 7.7959 165.115 7.99902 162.627 8.40527ZM207.264 6.62793V7.05957C206.146 7.05957 205.199 7.37272 204.42 7.99902C203.641 8.62533 203.252 9.66634 203.252 11.1221V39.5088C203.252 40.9476 203.667 41.9971 204.496 42.6572C205.326 43.3005 206.248 43.6221 207.264 43.6221V44.0283H195.406V43.6221C196.49 43.6221 197.421 43.3089 198.199 42.6826C198.995 42.0394 199.393 40.9814 199.393 39.5088V11.1221C199.393 9.56478 198.995 8.49837 198.199 7.92285C197.421 7.34733 196.49 7.05957 195.406 7.05957V6.62793H207.264ZM251.393 25.3662C251.393 28.8701 250.521 32.1286 248.777 35.1416C247.051 38.1546 244.689 40.5583 241.693 42.3525C238.697 44.1299 235.38 45.0186 231.74 45.0186C228.084 45.0186 224.732 44.1299 221.686 42.3525C218.639 40.5583 216.235 38.1462 214.475 35.1162C212.731 32.0863 211.859 28.7855 211.859 25.2139C211.859 22.4717 212.376 19.8988 213.408 17.4951C214.458 15.0745 215.913 12.9671 217.775 11.1729C219.654 9.37858 221.787 7.99056 224.174 7.00879C226.577 6.02702 229.083 5.53613 231.689 5.53613C234.245 5.53613 236.7 6.01009 239.053 6.95801C241.406 7.889 243.513 9.24316 245.375 11.0205C247.254 12.7979 248.727 14.9053 249.793 17.3428C250.859 19.7803 251.393 22.4548 251.393 25.3662ZM246.924 25.4678C246.924 20.4912 246.044 16.598 244.283 13.7881C242.523 10.9782 240.492 9.09928 238.189 8.15137C235.887 7.18652 233.721 6.7041 231.689 6.7041C230.115 6.7041 228.482 6.96647 226.789 7.49121C225.096 7.99902 223.446 8.93848 221.838 10.3096C220.247 11.6807 218.935 13.6104 217.902 16.0986C216.87 18.5869 216.354 21.6592 216.354 25.3154C216.354 28.5316 216.777 31.3415 217.623 33.7451C218.486 36.1318 219.663 38.0869 221.152 39.6104C222.659 41.1169 224.309 42.2087 226.104 42.8857C227.915 43.5459 229.794 43.876 231.74 43.876C233.484 43.876 235.244 43.5713 237.021 42.9619C238.816 42.3356 240.449 41.3285 241.922 39.9404C243.411 38.5355 244.613 36.6396 245.527 34.2529C246.458 31.8493 246.924 28.9209 246.924 25.4678ZM275.26 13.8135H274.854C274.617 12.0023 273.821 10.4196 272.467 9.06543C271.13 7.69434 269.361 7.00879 267.16 7.00879C265.721 7.00879 264.443 7.34733 263.326 8.02441C262.209 8.7015 261.346 9.62402 260.736 10.792C260.127 11.96 259.822 13.2972 259.822 14.8037C259.822 15.9717 260 17.0127 260.355 17.9268C260.728 18.8239 261.27 19.6195 261.98 20.3135C262.691 21.0075 263.529 21.6592 264.494 22.2686C265.459 22.861 266.762 23.6143 268.404 24.5283C271.146 26.0348 273.279 27.5413 274.803 29.0479C276.326 30.5374 277.088 32.5856 277.088 35.1924C277.088 36.7835 276.673 38.3239 275.844 39.8135C275.031 41.2861 273.796 42.4964 272.137 43.4443C270.478 44.3923 268.421 44.8662 265.967 44.8662C264.426 44.8662 263.064 44.6969 261.879 44.3584C260.694 44.0368 259.492 43.5798 258.273 42.9873C257.766 42.818 257.419 42.7334 257.232 42.7334C256.877 42.7334 256.64 42.8604 256.521 43.1143C256.42 43.3682 256.276 43.9183 256.09 44.7646H255.658V35.3955H256.09C256.699 38.1377 257.884 40.2113 259.645 41.6162C261.405 43.0212 263.546 43.7236 266.068 43.7236C267.964 43.7236 269.479 43.3682 270.613 42.6572C271.764 41.9463 272.56 41.083 273 40.0674C273.44 39.0518 273.66 38.0361 273.66 37.0205C273.66 34.9215 273.017 33.2119 271.73 31.8916C270.461 30.5544 268.523 29.1917 265.916 27.8037C264.122 26.8219 262.793 26.0602 261.93 25.5186C261.066 24.9769 260.186 24.2744 259.289 23.4111C258.409 22.5479 257.706 21.5322 257.182 20.3643C256.657 19.1794 256.395 17.8252 256.395 16.3018C256.395 14.5413 256.86 12.8571 257.791 11.249C258.722 9.64095 260.042 8.35449 261.752 7.38965C263.462 6.40788 265.4 5.91699 267.566 5.91699C269.208 5.91699 270.893 6.19629 272.619 6.75488C272.89 6.8903 273.254 6.95801 273.711 6.95801C274.27 6.95801 274.65 6.57715 274.854 5.81543H275.26V13.8135ZM320.811 25.3662C320.811 28.8701 319.939 32.1286 318.195 35.1416C316.469 38.1546 314.107 40.5583 311.111 42.3525C308.115 44.1299 304.798 45.0186 301.158 45.0186C297.502 45.0186 294.15 44.1299 291.104 42.3525C288.057 40.5583 285.653 38.1462 283.893 35.1162C282.149 32.0863 281.277 28.7855 281.277 25.2139C281.277 22.4717 281.794 19.8988 282.826 17.4951C283.876 15.0745 285.331 12.9671 287.193 11.1729C289.072 9.37858 291.205 7.99056 293.592 7.00879C295.995 6.02702 298.501 5.53613 301.107 5.53613C303.663 5.53613 306.118 6.01009 308.471 6.95801C310.824 7.889 312.931 9.24316 314.793 11.0205C316.672 12.7979 318.145 14.9053 319.211 17.3428C320.277 19.7803 320.811 22.4548 320.811 25.3662ZM316.342 25.4678C316.342 20.4912 315.462 16.598 313.701 13.7881C311.941 10.9782 309.91 9.09928 307.607 8.15137C305.305 7.18652 303.139 6.7041 301.107 6.7041C299.533 6.7041 297.9 6.96647 296.207 7.49121C294.514 7.99902 292.864 8.93848 291.256 10.3096C289.665 11.6807 288.353 13.6104 287.32 16.0986C286.288 18.5869 285.771 21.6592 285.771 25.3154C285.771 28.5316 286.195 31.3415 287.041 33.7451C287.904 36.1318 289.081 38.0869 290.57 39.6104C292.077 41.1169 293.727 42.2087 295.521 42.8857C297.333 43.5459 299.212 43.876 301.158 43.876C302.902 43.876 304.662 43.5713 306.439 42.9619C308.234 42.3356 309.867 41.3285 311.34 39.9404C312.829 38.5355 314.031 36.6396 314.945 34.2529C315.876 31.8493 316.342 28.9209 316.342 25.4678Z" fill="white"/>
<path d="M347.07 20.8369V21.1689C346.341 21.2601 345.736 21.5075 345.254 21.9111C344.772 22.3148 344.362 22.8421 344.023 23.4932C343.685 24.1312 343.301 24.984 342.871 26.0518C342.806 26.1169 342.741 26.2731 342.676 26.5205L334.355 50.3682H334.082L324.277 24.5674C324.277 24.5153 324.251 24.4372 324.199 24.333C323.822 23.2262 323.32 22.4189 322.695 21.9111C322.083 21.4033 321.315 21.1559 320.391 21.1689V20.8369H329.844V21.1689C329.049 21.2471 328.411 21.4033 327.93 21.6377C327.448 21.8721 327.207 22.432 327.207 23.3174C327.207 23.5518 327.311 24.0335 327.52 24.7627C327.546 24.8278 327.565 24.8994 327.578 24.9775C327.604 25.0426 327.624 25.0947 327.637 25.1338L335.195 45.3291H335.273L341.758 26.5205C342.214 25.2314 342.441 24.2614 342.441 23.6104C342.441 22.5817 342.22 21.9307 341.777 21.6572C341.348 21.3838 340.703 21.221 339.844 21.1689V20.8369H347.07ZM358.145 20.8369V21.1689C357.285 21.1689 356.556 21.4098 355.957 21.8916C355.358 22.3734 355.059 23.1742 355.059 24.2939V46.1299C355.059 47.2367 355.378 48.0439 356.016 48.5518C356.654 49.0465 357.363 49.2939 358.145 49.2939V49.6064H349.023V49.2939C349.857 49.2939 350.573 49.0531 351.172 48.5713C351.784 48.0765 352.09 47.2627 352.09 46.1299V24.2939C352.09 23.096 351.784 22.2757 351.172 21.833C350.573 21.3903 349.857 21.1689 349.023 21.1689V20.8369H358.145ZM390.84 20.8369V21.1689C390.111 21.2601 389.531 21.4033 389.102 21.5986C388.685 21.7809 388.359 22.152 388.125 22.7119C387.891 23.2588 387.773 24.0531 387.773 25.0947V50.3291H387.578L365.488 25.6807V43.376C365.488 44.8473 365.547 45.9411 365.664 46.6572C365.781 47.3734 365.951 47.8877 366.172 48.2002C366.654 48.8773 367.493 49.2419 368.691 49.2939V49.6064H361.484V49.2939C362.292 49.2549 362.917 49.0856 363.359 48.7861C363.815 48.4736 364.134 47.9137 364.316 47.1064C364.512 46.2861 364.609 45.0557 364.609 43.415V24.6455L363.652 23.5713C362.806 22.6077 362.129 22.0023 361.621 21.7549C361.113 21.4945 360.482 21.2992 359.727 21.1689V20.8369H365.137L386.895 45.2119V26.6377C386.895 25.2445 386.836 24.2028 386.719 23.5127C386.615 22.8226 386.322 22.2692 385.84 21.8525C385.371 21.4359 384.629 21.208 383.613 21.1689V20.8369H390.84ZM419.551 27.2822H419.219C418.971 25.876 418.307 24.6846 417.227 23.708C416.159 22.7314 414.928 22.0218 413.535 21.5791C412.142 21.1234 410.84 20.8955 409.629 20.8955C407.975 20.8955 406.419 21.2471 404.961 21.9502C403.516 22.6403 402.266 23.6234 401.211 24.8994C400.156 26.1624 399.336 27.6859 398.75 29.4697C398.164 31.2406 397.871 33.1676 397.871 35.251C397.871 37.2692 398.151 39.1442 398.711 40.876C399.284 42.5947 400.111 44.0921 401.191 45.3682C402.285 46.6312 403.548 47.5882 404.98 48.2393C406.413 48.8903 408.001 49.2158 409.746 49.2158C411.204 49.2158 412.806 48.9229 414.551 48.3369C416.296 47.738 417.871 46.7484 419.277 45.3682V46.4814C417.546 47.8226 415.957 48.8057 414.512 49.4307C413.079 50.0557 411.289 50.3682 409.141 50.3682C406.875 50.3682 404.805 49.958 402.93 49.1377C401.068 48.3044 399.492 47.1846 398.203 45.7783C396.914 44.3721 395.938 42.79 395.273 41.0322C394.609 39.2744 394.277 37.4645 394.277 35.6025C394.277 32.8031 394.967 30.2054 396.348 27.8096C397.728 25.4007 399.596 23.4997 401.953 22.1064C404.31 20.7002 406.868 19.9971 409.629 19.9971C411.335 19.9971 413.151 20.251 415.078 20.7588L417.109 21.3252C417.5 21.4033 417.832 21.4424 418.105 21.4424C418.613 21.4424 418.952 21.3708 419.121 21.2275C419.29 21.0713 419.421 20.7979 419.512 20.4072H419.824L419.551 27.2822ZM431.543 20.8369V21.1689C430.684 21.1689 429.954 21.4098 429.355 21.8916C428.757 22.3734 428.457 23.1742 428.457 24.2939V46.1299C428.457 47.2367 428.776 48.0439 429.414 48.5518C430.052 49.0465 430.762 49.2939 431.543 49.2939V49.6064H422.422V49.2939C423.255 49.2939 423.971 49.0531 424.57 48.5713C425.182 48.0765 425.488 47.2627 425.488 46.1299V24.2939C425.488 23.096 425.182 22.2757 424.57 21.833C423.971 21.3903 423.255 21.1689 422.422 21.1689V20.8369H431.543Z" fill="white"/>
</svg>
