<svg width="300" height="80" viewBox="0 0 463 86" fill="none" xmlns="http://www.w3.org/2000/svg">
<mask id="path-1-outside-1_163_50" maskUnits="userSpaceOnUse" x="1" y="4" width="321" height="42" fill="black">
<rect fill="white" x="1" y="4" width="321" height="42"/>
<path d="M36.0801 14.3691H35.6738C35.1322 11.9316 33.6934 10.0443 31.3574 8.70703C29.0215 7.35286 26.3555 6.67578 23.3594 6.67578C21.8021 6.67578 20.1263 6.92122 18.332 7.41211C16.5547 7.88607 14.8197 8.75781 13.127 10.0273C11.4342 11.2969 10.0293 13.1419 8.91211 15.5625C7.79492 17.9661 7.23633 20.9961 7.23633 24.6523C7.23633 30.4753 8.59049 35.1302 11.2988 38.6172C14.0241 42.1042 18.3913 43.8477 24.4004 43.8477C26.7702 43.8477 28.5137 43.6868 29.6309 43.3652C30.748 43.0436 31.459 42.6035 31.7637 42.0449C32.0853 41.4863 32.2461 40.7331 32.2461 39.7852V32.9297C32.2461 31.3047 31.8906 30.2298 31.1797 29.7051C30.4857 29.1803 29.4362 28.8333 28.0312 28.6641V28.2324H40.1934V28.6641C39.0762 28.7826 38.2129 29.028 37.6035 29.4004C36.9941 29.7559 36.5879 30.2214 36.3848 30.7969C36.1816 31.3724 36.0801 32.1341 36.0801 33.082V43.4922C32.3561 44.4909 28.5137 44.9902 24.5527 44.9902C22.5046 44.9902 20.4818 44.821 18.4844 44.4824C16.487 44.1439 14.4049 43.3906 12.2383 42.2227C10.0716 41.0547 8.15885 39.3281 6.5 37.043C4.01172 33.6068 2.76758 29.722 2.76758 25.3887C2.76758 22.8665 3.23307 20.4121 4.16406 18.0254C5.11198 15.6387 6.46615 13.5059 8.22656 11.627C10.0039 9.73112 12.1706 8.24154 14.7266 7.1582C17.2826 6.05794 20.1178 5.50781 23.2324 5.50781C24.4342 5.50781 25.6107 5.59245 26.7617 5.76172C27.9128 5.91406 29.6309 6.23568 31.916 6.72656C32.8132 6.92969 33.4564 7.03125 33.8457 7.03125C34.6751 7.03125 35.2845 6.61654 35.6738 5.78711H36.0801V14.3691ZM42.9102 7.13281H42.4023V6.59961H55.3516C57.4336 6.59961 59.194 6.92122 60.6328 7.56445C62.0885 8.20768 63.2142 9.02865 64.0098 10.0273C64.8223 11.0091 65.3978 12.0501 65.7363 13.1504C66.0918 14.2507 66.2695 15.334 66.2695 16.4004C66.2695 17.7546 65.9818 19.0579 65.4062 20.3105C64.8477 21.5462 63.9759 22.6126 62.791 23.5098C61.623 24.4069 60.1589 25.0163 58.3984 25.3379V25.4395C60.6328 26.5228 62.6979 28.6725 64.5938 31.8887L67.9707 37.6016C69.4941 40.1576 70.7129 41.7741 71.627 42.4512C72.5579 43.1283 73.472 43.5091 74.3691 43.5938V44H67.5645C67.2767 43.6276 67.0059 43.2721 66.752 42.9336C66.498 42.5781 66.2272 42.2057 65.9395 41.8164C65.7702 41.5625 65.5163 41.1816 65.1777 40.6738C64.8561 40.1491 64.6615 39.8529 64.5938 39.7852L60.125 32.3965C59.2279 30.89 58.3053 29.6712 57.3574 28.7402C56.4264 27.7923 55.5547 27.1152 54.7422 26.709C53.9297 26.3027 53.1934 26.0488 52.5332 25.9473C51.89 25.8457 51.1283 25.7949 50.248 25.7949V39.4805C50.248 42.138 51.6022 43.5091 54.3105 43.5938V44H42.4023V43.5938C43.1471 43.5599 43.8073 43.4245 44.3828 43.1875C44.9583 42.9336 45.4323 42.5104 45.8047 41.918C46.194 41.3086 46.3887 40.4961 46.3887 39.4805V11.1953C46.3887 9.70573 46.0247 8.65625 45.2969 8.04688C44.569 7.4375 43.7734 7.13281 42.9102 7.13281ZM50.248 24.8047H52.3809C54.6152 24.8047 56.4434 24.4831 57.8652 23.8398C59.304 23.1966 60.3451 22.2826 60.9883 21.0977C61.6315 19.8958 61.9531 18.4316 61.9531 16.7051C61.9531 15.2663 61.6654 13.8613 61.0898 12.4902C60.5143 11.1022 59.5326 9.94271 58.1445 9.01172C56.7734 8.0638 54.9199 7.58984 52.584 7.58984C51.6361 7.58984 50.8574 7.66602 50.248 7.81836V24.8047ZM93.666 6.14258L104.863 38.1855C105.456 39.8444 106.014 41.0462 106.539 41.791C107.064 42.5358 107.563 43.0098 108.037 43.2129C108.528 43.3991 109.146 43.526 109.891 43.5938V44H97.6777V43.5938C98.9303 43.5938 99.8952 43.4753 100.572 43.2383C101.249 43.0013 101.588 42.3581 101.588 41.3086C101.588 40.7331 101.427 39.9629 101.105 38.998C101.038 38.8626 101.004 38.7611 101.004 38.6934L97.6777 28.7656H84.7285L81.7578 37.957C81.3516 39.2096 81.1484 40.2168 81.1484 40.9785C81.1484 42.028 81.4108 42.7305 81.9355 43.0859C82.4603 43.4245 83.2051 43.5938 84.1699 43.5938V44H75.3848V43.5938C76.6374 43.4753 77.6361 43.0013 78.3809 42.1719C79.1426 41.3255 79.8027 40.0475 80.3613 38.3379L90.9238 6.14258H93.666ZM85.1602 27.4199H97.0684L90.9746 9.67188H90.873L85.1602 27.4199ZM151.15 6.59961V7.03125C150.202 7.14974 149.449 7.33594 148.891 7.58984C148.349 7.82682 147.926 8.30924 147.621 9.03711C147.316 9.74805 147.164 10.7806 147.164 12.1348V44.9395H146.91L118.193 12.8965V35.9004C118.193 37.8132 118.27 39.235 118.422 40.166C118.574 41.097 118.794 41.7656 119.082 42.1719C119.708 43.0521 120.8 43.526 122.357 43.5938V44H112.988V43.5938C114.038 43.543 114.85 43.3229 115.426 42.9336C116.018 42.5273 116.433 41.7995 116.67 40.75C116.924 39.6836 117.051 38.084 117.051 35.9512V11.5508L115.807 10.1543C114.706 8.90169 113.826 8.11458 113.166 7.79297C112.506 7.45443 111.685 7.20052 110.703 7.03125V6.59961H117.736L146.021 38.2871V14.1406C146.021 12.3294 145.945 10.9753 145.793 10.0781C145.658 9.18099 145.277 8.46159 144.65 7.91992C144.041 7.37826 143.076 7.08203 141.756 7.03125V6.59961H151.15ZM154.781 7.03125V6.59961H169.178C171.192 6.59961 173.046 6.77734 174.738 7.13281C176.448 7.47135 177.971 7.92839 179.309 8.50391C180.663 9.07943 181.831 9.71419 182.812 10.4082C183.794 11.0853 184.624 11.7793 185.301 12.4902C186.486 13.6751 187.493 14.9954 188.322 16.4512C189.152 17.89 189.77 19.4134 190.176 21.0215C190.599 22.6296 190.811 24.2884 190.811 25.998C190.811 27.7077 190.607 29.3327 190.201 30.873C189.795 32.4134 189.211 33.8438 188.449 35.1641C187.688 36.4674 186.773 37.6523 185.707 38.7188C184.658 39.7852 183.43 40.75 182.025 41.6133C180.824 42.3242 179.444 42.8997 177.887 43.3398C176.329 43.7799 174.222 44 171.564 44H154.781V43.5938H155.289C156.457 43.5938 157.329 43.1536 157.904 42.2734C158.48 41.3932 158.768 40.4622 158.768 39.4805V11.2461C158.768 10.2982 158.607 9.5026 158.285 8.85938C157.98 8.21615 157.566 7.75065 157.041 7.46289C156.516 7.17513 155.932 7.03125 155.289 7.03125H154.781ZM162.627 8.37695V38.0078C162.627 39.4635 162.855 40.5384 163.312 41.2324C163.786 41.9095 164.514 42.3496 165.496 42.5527C166.478 42.7559 167.917 42.8574 169.812 42.8574C172.521 42.8574 174.806 42.5951 176.668 42.0703C178.53 41.5286 180.333 40.3353 182.076 38.4902C183.363 37.1191 184.395 35.4434 185.174 33.4629C185.952 31.4824 186.342 29.0872 186.342 26.2773C186.342 24.0599 186.029 21.8678 185.402 19.7012C184.776 17.5176 183.82 15.5794 182.533 13.8867C181.094 11.974 179.241 10.4759 176.973 9.39258C174.721 8.30924 172.005 7.76758 168.822 7.76758C167.18 7.76758 165.115 7.9707 162.627 8.37695ZM207.264 6.59961V7.03125C206.146 7.03125 205.199 7.3444 204.42 7.9707C203.641 8.59701 203.252 9.63802 203.252 11.0938V39.4805C203.252 40.9193 203.667 41.9688 204.496 42.6289C205.326 43.2721 206.248 43.5938 207.264 43.5938V44H195.406V43.5938C196.49 43.5938 197.421 43.2806 198.199 42.6543C198.995 42.0111 199.393 40.9531 199.393 39.4805V11.0938C199.393 9.53646 198.995 8.47005 198.199 7.89453C197.421 7.31901 196.49 7.03125 195.406 7.03125V6.59961H207.264ZM251.393 25.3379C251.393 28.8418 250.521 32.1003 248.777 35.1133C247.051 38.1263 244.689 40.5299 241.693 42.3242C238.697 44.1016 235.38 44.9902 231.74 44.9902C228.084 44.9902 224.732 44.1016 221.686 42.3242C218.639 40.5299 216.235 38.1178 214.475 35.0879C212.731 32.0579 211.859 28.7572 211.859 25.1855C211.859 22.4434 212.376 19.8704 213.408 17.4668C214.458 15.0462 215.913 12.9388 217.775 11.1445C219.654 9.35026 221.787 7.96224 224.174 6.98047C226.577 5.9987 229.083 5.50781 231.689 5.50781C234.245 5.50781 236.7 5.98177 239.053 6.92969C241.406 7.86068 243.513 9.21484 245.375 10.9922C247.254 12.7695 248.727 14.877 249.793 17.3145C250.859 19.752 251.393 22.4264 251.393 25.3379ZM246.924 25.4395C246.924 20.4629 246.044 16.5697 244.283 13.7598C242.523 10.9499 240.492 9.07096 238.189 8.12305C235.887 7.1582 233.721 6.67578 231.689 6.67578C230.115 6.67578 228.482 6.93815 226.789 7.46289C225.096 7.9707 223.446 8.91016 221.838 10.2812C220.247 11.6523 218.935 13.582 217.902 16.0703C216.87 18.5586 216.354 21.6309 216.354 25.2871C216.354 28.5033 216.777 31.3132 217.623 33.7168C218.486 36.1035 219.663 38.0586 221.152 39.582C222.659 41.0885 224.309 42.1803 226.104 42.8574C227.915 43.5176 229.794 43.8477 231.74 43.8477C233.484 43.8477 235.244 43.543 237.021 42.9336C238.816 42.3073 240.449 41.3001 241.922 39.9121C243.411 38.5072 244.613 36.6113 245.527 34.2246C246.458 31.821 246.924 28.8926 246.924 25.4395ZM275.26 13.7852H274.854C274.617 11.974 273.821 10.3913 272.467 9.03711C271.13 7.66602 269.361 6.98047 267.16 6.98047C265.721 6.98047 264.443 7.31901 263.326 7.99609C262.209 8.67318 261.346 9.5957 260.736 10.7637C260.127 11.9316 259.822 13.2689 259.822 14.7754C259.822 15.9434 260 16.9844 260.355 17.8984C260.728 18.7956 261.27 19.5911 261.98 20.2852C262.691 20.9792 263.529 21.6309 264.494 22.2402C265.459 22.8327 266.762 23.5859 268.404 24.5C271.146 26.0065 273.279 27.513 274.803 29.0195C276.326 30.5091 277.088 32.5573 277.088 35.1641C277.088 36.7552 276.673 38.2956 275.844 39.7852C275.031 41.2578 273.796 42.4681 272.137 43.416C270.478 44.3639 268.421 44.8379 265.967 44.8379C264.426 44.8379 263.064 44.6686 261.879 44.3301C260.694 44.0085 259.492 43.5514 258.273 42.959C257.766 42.7897 257.419 42.7051 257.232 42.7051C256.877 42.7051 256.64 42.832 256.521 43.0859C256.42 43.3398 256.276 43.89 256.09 44.7363H255.658V35.3672H256.09C256.699 38.1094 257.884 40.1829 259.645 41.5879C261.405 42.9928 263.546 43.6953 266.068 43.6953C267.964 43.6953 269.479 43.3398 270.613 42.6289C271.764 41.918 272.56 41.0547 273 40.0391C273.44 39.0234 273.66 38.0078 273.66 36.9922C273.66 34.8932 273.017 33.1836 271.73 31.8633C270.461 30.526 268.523 29.1634 265.916 27.7754C264.122 26.7936 262.793 26.0319 261.93 25.4902C261.066 24.9486 260.186 24.2461 259.289 23.3828C258.409 22.5195 257.706 21.5039 257.182 20.3359C256.657 19.151 256.395 17.7969 256.395 16.2734C256.395 14.513 256.86 12.8288 257.791 11.2207C258.722 9.61263 260.042 8.32617 261.752 7.36133C263.462 6.37956 265.4 5.88867 267.566 5.88867C269.208 5.88867 270.893 6.16797 272.619 6.72656C272.89 6.86198 273.254 6.92969 273.711 6.92969C274.27 6.92969 274.65 6.54883 274.854 5.78711H275.26V13.7852ZM320.811 25.3379C320.811 28.8418 319.939 32.1003 318.195 35.1133C316.469 38.1263 314.107 40.5299 311.111 42.3242C308.115 44.1016 304.798 44.9902 301.158 44.9902C297.502 44.9902 294.15 44.1016 291.104 42.3242C288.057 40.5299 285.653 38.1178 283.893 35.0879C282.149 32.0579 281.277 28.7572 281.277 25.1855C281.277 22.4434 281.794 19.8704 282.826 17.4668C283.876 15.0462 285.331 12.9388 287.193 11.1445C289.072 9.35026 291.205 7.96224 293.592 6.98047C295.995 5.9987 298.501 5.50781 301.107 5.50781C303.663 5.50781 306.118 5.98177 308.471 6.92969C310.824 7.86068 312.931 9.21484 314.793 10.9922C316.672 12.7695 318.145 14.877 319.211 17.3145C320.277 19.752 320.811 22.4264 320.811 25.3379ZM316.342 25.4395C316.342 20.4629 315.462 16.5697 313.701 13.7598C311.941 10.9499 309.91 9.07096 307.607 8.12305C305.305 7.1582 303.139 6.67578 301.107 6.67578C299.533 6.67578 297.9 6.93815 296.207 7.46289C294.514 7.9707 292.864 8.91016 291.256 10.2812C289.665 11.6523 288.353 13.582 287.32 16.0703C286.288 18.5586 285.771 21.6309 285.771 25.2871C285.771 28.5033 286.195 31.3132 287.041 33.7168C287.904 36.1035 289.081 38.0586 290.57 39.582C292.077 41.0885 293.727 42.1803 295.521 42.8574C297.333 43.5176 299.212 43.8477 301.158 43.8477C302.902 43.8477 304.662 43.543 306.439 42.9336C308.234 42.3073 309.867 41.3001 311.34 39.9121C312.829 38.5072 314.031 36.6113 314.945 34.2246C315.876 31.821 316.342 28.8926 316.342 25.4395Z"/>
</mask>
<path d="M36.0801 14.3691H35.6738C35.1322 11.9316 33.6934 10.0443 31.3574 8.70703C29.0215 7.35286 26.3555 6.67578 23.3594 6.67578C21.8021 6.67578 20.1263 6.92122 18.332 7.41211C16.5547 7.88607 14.8197 8.75781 13.127 10.0273C11.4342 11.2969 10.0293 13.1419 8.91211 15.5625C7.79492 17.9661 7.23633 20.9961 7.23633 24.6523C7.23633 30.4753 8.59049 35.1302 11.2988 38.6172C14.0241 42.1042 18.3913 43.8477 24.4004 43.8477C26.7702 43.8477 28.5137 43.6868 29.6309 43.3652C30.748 43.0436 31.459 42.6035 31.7637 42.0449C32.0853 41.4863 32.2461 40.7331 32.2461 39.7852V32.9297C32.2461 31.3047 31.8906 30.2298 31.1797 29.7051C30.4857 29.1803 29.4362 28.8333 28.0312 28.6641V28.2324H40.1934V28.6641C39.0762 28.7826 38.2129 29.028 37.6035 29.4004C36.9941 29.7559 36.5879 30.2214 36.3848 30.7969C36.1816 31.3724 36.0801 32.1341 36.0801 33.082V43.4922C32.3561 44.4909 28.5137 44.9902 24.5527 44.9902C22.5046 44.9902 20.4818 44.821 18.4844 44.4824C16.487 44.1439 14.4049 43.3906 12.2383 42.2227C10.0716 41.0547 8.15885 39.3281 6.5 37.043C4.01172 33.6068 2.76758 29.722 2.76758 25.3887C2.76758 22.8665 3.23307 20.4121 4.16406 18.0254C5.11198 15.6387 6.46615 13.5059 8.22656 11.627C10.0039 9.73112 12.1706 8.24154 14.7266 7.1582C17.2826 6.05794 20.1178 5.50781 23.2324 5.50781C24.4342 5.50781 25.6107 5.59245 26.7617 5.76172C27.9128 5.91406 29.6309 6.23568 31.916 6.72656C32.8132 6.92969 33.4564 7.03125 33.8457 7.03125C34.6751 7.03125 35.2845 6.61654 35.6738 5.78711H36.0801V14.3691ZM42.9102 7.13281H42.4023V6.59961H55.3516C57.4336 6.59961 59.194 6.92122 60.6328 7.56445C62.0885 8.20768 63.2142 9.02865 64.0098 10.0273C64.8223 11.0091 65.3978 12.0501 65.7363 13.1504C66.0918 14.2507 66.2695 15.334 66.2695 16.4004C66.2695 17.7546 65.9818 19.0579 65.4062 20.3105C64.8477 21.5462 63.9759 22.6126 62.791 23.5098C61.623 24.4069 60.1589 25.0163 58.3984 25.3379V25.4395C60.6328 26.5228 62.6979 28.6725 64.5938 31.8887L67.9707 37.6016C69.4941 40.1576 70.7129 41.7741 71.627 42.4512C72.5579 43.1283 73.472 43.5091 74.3691 43.5938V44H67.5645C67.2767 43.6276 67.0059 43.2721 66.752 42.9336C66.498 42.5781 66.2272 42.2057 65.9395 41.8164C65.7702 41.5625 65.5163 41.1816 65.1777 40.6738C64.8561 40.1491 64.6615 39.8529 64.5938 39.7852L60.125 32.3965C59.2279 30.89 58.3053 29.6712 57.3574 28.7402C56.4264 27.7923 55.5547 27.1152 54.7422 26.709C53.9297 26.3027 53.1934 26.0488 52.5332 25.9473C51.89 25.8457 51.1283 25.7949 50.248 25.7949V39.4805C50.248 42.138 51.6022 43.5091 54.3105 43.5938V44H42.4023V43.5938C43.1471 43.5599 43.8073 43.4245 44.3828 43.1875C44.9583 42.9336 45.4323 42.5104 45.8047 41.918C46.194 41.3086 46.3887 40.4961 46.3887 39.4805V11.1953C46.3887 9.70573 46.0247 8.65625 45.2969 8.04688C44.569 7.4375 43.7734 7.13281 42.9102 7.13281ZM50.248 24.8047H52.3809C54.6152 24.8047 56.4434 24.4831 57.8652 23.8398C59.304 23.1966 60.3451 22.2826 60.9883 21.0977C61.6315 19.8958 61.9531 18.4316 61.9531 16.7051C61.9531 15.2663 61.6654 13.8613 61.0898 12.4902C60.5143 11.1022 59.5326 9.94271 58.1445 9.01172C56.7734 8.0638 54.9199 7.58984 52.584 7.58984C51.6361 7.58984 50.8574 7.66602 50.248 7.81836V24.8047ZM93.666 6.14258L104.863 38.1855C105.456 39.8444 106.014 41.0462 106.539 41.791C107.064 42.5358 107.563 43.0098 108.037 43.2129C108.528 43.3991 109.146 43.526 109.891 43.5938V44H97.6777V43.5938C98.9303 43.5938 99.8952 43.4753 100.572 43.2383C101.249 43.0013 101.588 42.3581 101.588 41.3086C101.588 40.7331 101.427 39.9629 101.105 38.998C101.038 38.8626 101.004 38.7611 101.004 38.6934L97.6777 28.7656H84.7285L81.7578 37.957C81.3516 39.2096 81.1484 40.2168 81.1484 40.9785C81.1484 42.028 81.4108 42.7305 81.9355 43.0859C82.4603 43.4245 83.2051 43.5938 84.1699 43.5938V44H75.3848V43.5938C76.6374 43.4753 77.6361 43.0013 78.3809 42.1719C79.1426 41.3255 79.8027 40.0475 80.3613 38.3379L90.9238 6.14258H93.666ZM85.1602 27.4199H97.0684L90.9746 9.67188H90.873L85.1602 27.4199ZM151.15 6.59961V7.03125C150.202 7.14974 149.449 7.33594 148.891 7.58984C148.349 7.82682 147.926 8.30924 147.621 9.03711C147.316 9.74805 147.164 10.7806 147.164 12.1348V44.9395H146.91L118.193 12.8965V35.9004C118.193 37.8132 118.27 39.235 118.422 40.166C118.574 41.097 118.794 41.7656 119.082 42.1719C119.708 43.0521 120.8 43.526 122.357 43.5938V44H112.988V43.5938C114.038 43.543 114.85 43.3229 115.426 42.9336C116.018 42.5273 116.433 41.7995 116.67 40.75C116.924 39.6836 117.051 38.084 117.051 35.9512V11.5508L115.807 10.1543C114.706 8.90169 113.826 8.11458 113.166 7.79297C112.506 7.45443 111.685 7.20052 110.703 7.03125V6.59961H117.736L146.021 38.2871V14.1406C146.021 12.3294 145.945 10.9753 145.793 10.0781C145.658 9.18099 145.277 8.46159 144.65 7.91992C144.041 7.37826 143.076 7.08203 141.756 7.03125V6.59961H151.15ZM154.781 7.03125V6.59961H169.178C171.192 6.59961 173.046 6.77734 174.738 7.13281C176.448 7.47135 177.971 7.92839 179.309 8.50391C180.663 9.07943 181.831 9.71419 182.812 10.4082C183.794 11.0853 184.624 11.7793 185.301 12.4902C186.486 13.6751 187.493 14.9954 188.322 16.4512C189.152 17.89 189.77 19.4134 190.176 21.0215C190.599 22.6296 190.811 24.2884 190.811 25.998C190.811 27.7077 190.607 29.3327 190.201 30.873C189.795 32.4134 189.211 33.8438 188.449 35.1641C187.688 36.4674 186.773 37.6523 185.707 38.7188C184.658 39.7852 183.43 40.75 182.025 41.6133C180.824 42.3242 179.444 42.8997 177.887 43.3398C176.329 43.7799 174.222 44 171.564 44H154.781V43.5938H155.289C156.457 43.5938 157.329 43.1536 157.904 42.2734C158.48 41.3932 158.768 40.4622 158.768 39.4805V11.2461C158.768 10.2982 158.607 9.5026 158.285 8.85938C157.98 8.21615 157.566 7.75065 157.041 7.46289C156.516 7.17513 155.932 7.03125 155.289 7.03125H154.781ZM162.627 8.37695V38.0078C162.627 39.4635 162.855 40.5384 163.312 41.2324C163.786 41.9095 164.514 42.3496 165.496 42.5527C166.478 42.7559 167.917 42.8574 169.812 42.8574C172.521 42.8574 174.806 42.5951 176.668 42.0703C178.53 41.5286 180.333 40.3353 182.076 38.4902C183.363 37.1191 184.395 35.4434 185.174 33.4629C185.952 31.4824 186.342 29.0872 186.342 26.2773C186.342 24.0599 186.029 21.8678 185.402 19.7012C184.776 17.5176 183.82 15.5794 182.533 13.8867C181.094 11.974 179.241 10.4759 176.973 9.39258C174.721 8.30924 172.005 7.76758 168.822 7.76758C167.18 7.76758 165.115 7.9707 162.627 8.37695ZM207.264 6.59961V7.03125C206.146 7.03125 205.199 7.3444 204.42 7.9707C203.641 8.59701 203.252 9.63802 203.252 11.0938V39.4805C203.252 40.9193 203.667 41.9688 204.496 42.6289C205.326 43.2721 206.248 43.5938 207.264 43.5938V44H195.406V43.5938C196.49 43.5938 197.421 43.2806 198.199 42.6543C198.995 42.0111 199.393 40.9531 199.393 39.4805V11.0938C199.393 9.53646 198.995 8.47005 198.199 7.89453C197.421 7.31901 196.49 7.03125 195.406 7.03125V6.59961H207.264ZM251.393 25.3379C251.393 28.8418 250.521 32.1003 248.777 35.1133C247.051 38.1263 244.689 40.5299 241.693 42.3242C238.697 44.1016 235.38 44.9902 231.74 44.9902C228.084 44.9902 224.732 44.1016 221.686 42.3242C218.639 40.5299 216.235 38.1178 214.475 35.0879C212.731 32.0579 211.859 28.7572 211.859 25.1855C211.859 22.4434 212.376 19.8704 213.408 17.4668C214.458 15.0462 215.913 12.9388 217.775 11.1445C219.654 9.35026 221.787 7.96224 224.174 6.98047C226.577 5.9987 229.083 5.50781 231.689 5.50781C234.245 5.50781 236.7 5.98177 239.053 6.92969C241.406 7.86068 243.513 9.21484 245.375 10.9922C247.254 12.7695 248.727 14.877 249.793 17.3145C250.859 19.752 251.393 22.4264 251.393 25.3379ZM246.924 25.4395C246.924 20.4629 246.044 16.5697 244.283 13.7598C242.523 10.9499 240.492 9.07096 238.189 8.12305C235.887 7.1582 233.721 6.67578 231.689 6.67578C230.115 6.67578 228.482 6.93815 226.789 7.46289C225.096 7.9707 223.446 8.91016 221.838 10.2812C220.247 11.6523 218.935 13.582 217.902 16.0703C216.87 18.5586 216.354 21.6309 216.354 25.2871C216.354 28.5033 216.777 31.3132 217.623 33.7168C218.486 36.1035 219.663 38.0586 221.152 39.582C222.659 41.0885 224.309 42.1803 226.104 42.8574C227.915 43.5176 229.794 43.8477 231.74 43.8477C233.484 43.8477 235.244 43.543 237.021 42.9336C238.816 42.3073 240.449 41.3001 241.922 39.9121C243.411 38.5072 244.613 36.6113 245.527 34.2246C246.458 31.821 246.924 28.8926 246.924 25.4395ZM275.26 13.7852H274.854C274.617 11.974 273.821 10.3913 272.467 9.03711C271.13 7.66602 269.361 6.98047 267.16 6.98047C265.721 6.98047 264.443 7.31901 263.326 7.99609C262.209 8.67318 261.346 9.5957 260.736 10.7637C260.127 11.9316 259.822 13.2689 259.822 14.7754C259.822 15.9434 260 16.9844 260.355 17.8984C260.728 18.7956 261.27 19.5911 261.98 20.2852C262.691 20.9792 263.529 21.6309 264.494 22.2402C265.459 22.8327 266.762 23.5859 268.404 24.5C271.146 26.0065 273.279 27.513 274.803 29.0195C276.326 30.5091 277.088 32.5573 277.088 35.1641C277.088 36.7552 276.673 38.2956 275.844 39.7852C275.031 41.2578 273.796 42.4681 272.137 43.416C270.478 44.3639 268.421 44.8379 265.967 44.8379C264.426 44.8379 263.064 44.6686 261.879 44.3301C260.694 44.0085 259.492 43.5514 258.273 42.959C257.766 42.7897 257.419 42.7051 257.232 42.7051C256.877 42.7051 256.64 42.832 256.521 43.0859C256.42 43.3398 256.276 43.89 256.09 44.7363H255.658V35.3672H256.09C256.699 38.1094 257.884 40.1829 259.645 41.5879C261.405 42.9928 263.546 43.6953 266.068 43.6953C267.964 43.6953 269.479 43.3398 270.613 42.6289C271.764 41.918 272.56 41.0547 273 40.0391C273.44 39.0234 273.66 38.0078 273.66 36.9922C273.66 34.8932 273.017 33.1836 271.73 31.8633C270.461 30.526 268.523 29.1634 265.916 27.7754C264.122 26.7936 262.793 26.0319 261.93 25.4902C261.066 24.9486 260.186 24.2461 259.289 23.3828C258.409 22.5195 257.706 21.5039 257.182 20.3359C256.657 19.151 256.395 17.7969 256.395 16.2734C256.395 14.513 256.86 12.8288 257.791 11.2207C258.722 9.61263 260.042 8.32617 261.752 7.36133C263.462 6.37956 265.4 5.88867 267.566 5.88867C269.208 5.88867 270.893 6.16797 272.619 6.72656C272.89 6.86198 273.254 6.92969 273.711 6.92969C274.27 6.92969 274.65 6.54883 274.854 5.78711H275.26V13.7852ZM320.811 25.3379C320.811 28.8418 319.939 32.1003 318.195 35.1133C316.469 38.1263 314.107 40.5299 311.111 42.3242C308.115 44.1016 304.798 44.9902 301.158 44.9902C297.502 44.9902 294.15 44.1016 291.104 42.3242C288.057 40.5299 285.653 38.1178 283.893 35.0879C282.149 32.0579 281.277 28.7572 281.277 25.1855C281.277 22.4434 281.794 19.8704 282.826 17.4668C283.876 15.0462 285.331 12.9388 287.193 11.1445C289.072 9.35026 291.205 7.96224 293.592 6.98047C295.995 5.9987 298.501 5.50781 301.107 5.50781C303.663 5.50781 306.118 5.98177 308.471 6.92969C310.824 7.86068 312.931 9.21484 314.793 10.9922C316.672 12.7695 318.145 14.877 319.211 17.3145C320.277 19.752 320.811 22.4264 320.811 25.3379ZM316.342 25.4395C316.342 20.4629 315.462 16.5697 313.701 13.7598C311.941 10.9499 309.91 9.07096 307.607 8.12305C305.305 7.1582 303.139 6.67578 301.107 6.67578C299.533 6.67578 297.9 6.93815 296.207 7.46289C294.514 7.9707 292.864 8.91016 291.256 10.2812C289.665 11.6523 288.353 13.582 287.32 16.0703C286.288 18.5586 285.771 21.6309 285.771 25.2871C285.771 28.5033 286.195 31.3132 287.041 33.7168C287.904 36.1035 289.081 38.0586 290.57 39.582C292.077 41.0885 293.727 42.1803 295.521 42.8574C297.333 43.5176 299.212 43.8477 301.158 43.8477C302.902 43.8477 304.662 43.543 306.439 42.9336C308.234 42.3073 309.867 41.3001 311.34 39.9121C312.829 38.5072 314.031 36.6113 314.945 34.2246C315.876 31.821 316.342 28.8926 316.342 25.4395Z" fill="black"/>
<path d="M36.0801 14.3691V15.3691H37.0801V14.3691H36.0801ZM35.6738 14.3691L34.6976 14.5861L34.8717 15.3691H35.6738V14.3691ZM31.3574 8.70703L30.8559 9.57218L30.8606 9.57489L31.3574 8.70703ZM18.332 7.41211L18.5897 8.37836L18.5959 8.37666L18.332 7.41211ZM8.91211 15.5625L9.81895 15.984L9.82007 15.9816L8.91211 15.5625ZM11.2988 38.6172L10.5091 39.2306L10.5109 39.233L11.2988 38.6172ZM31.7637 42.0449L30.897 41.546L30.8913 41.5559L30.8858 41.5661L31.7637 42.0449ZM31.1797 29.7051L30.5765 30.5028L30.5858 30.5097L31.1797 29.7051ZM28.0312 28.6641H27.0312V29.5508L27.9116 29.6569L28.0312 28.6641ZM28.0312 28.2324V27.2324H27.0312V28.2324H28.0312ZM40.1934 28.2324H41.1934V27.2324H40.1934V28.2324ZM40.1934 28.6641L40.2988 29.6585L41.1934 29.5636V28.6641H40.1934ZM37.6035 29.4004L38.1074 30.2642L38.1162 30.259L38.125 30.2537L37.6035 29.4004ZM36.3848 30.7969L35.4418 30.4641L36.3848 30.7969ZM36.0801 43.4922L36.3391 44.4581L37.0801 44.2593V43.4922H36.0801ZM12.2383 42.2227L11.7638 43.1029L12.2383 42.2227ZM6.5 37.043L5.69006 37.6295L5.69075 37.6304L6.5 37.043ZM4.16406 18.0254L3.23466 17.6563L3.23243 17.662L4.16406 18.0254ZM8.22656 11.627L7.49703 10.943L7.49682 10.9432L8.22656 11.627ZM14.7266 7.1582L15.1168 8.07893L15.1219 8.07672L14.7266 7.1582ZM26.7617 5.76172L26.6162 6.75108L26.6234 6.75213L26.6305 6.75307L26.7617 5.76172ZM31.916 6.72656L32.1369 5.75119L32.126 5.74887L31.916 6.72656ZM35.6738 5.78711V4.78711H35.0385L34.7686 5.3622L35.6738 5.78711ZM36.0801 5.78711H37.0801V4.78711H36.0801V5.78711ZM36.0801 13.3691H35.6738V15.3691H36.0801V13.3691ZM36.65 14.1522C36.0421 11.4168 34.4131 9.30403 31.8542 7.83918L30.8606 9.57489C32.9736 10.7845 34.2222 12.4465 34.6976 14.5861L36.65 14.1522ZM31.859 7.84189C29.3544 6.38996 26.5118 5.67578 23.3594 5.67578V7.67578C26.1991 7.67578 28.6886 8.31577 30.8559 9.57217L31.859 7.84189ZM23.3594 5.67578C21.6976 5.67578 19.9323 5.93756 18.0681 6.44756L18.5959 8.37666C20.3203 7.90489 21.9065 7.67578 23.3594 7.67578V5.67578ZM18.0744 6.44587C16.1562 6.95739 14.3068 7.89242 12.527 9.22734L13.727 10.8273C15.3325 9.6232 16.9532 8.81474 18.5897 8.37834L18.0744 6.44587ZM12.527 9.22734C10.6715 10.619 9.17312 12.6107 8.00415 15.1434L9.82007 15.9816C10.8855 13.6732 12.197 11.9748 13.727 10.8273L12.527 9.22734ZM8.00527 15.141C6.80806 17.7168 6.23633 20.9024 6.23633 24.6523H8.23633C8.23633 21.0898 8.78178 18.2155 9.81894 15.984L8.00527 15.141ZM6.23633 24.6523C6.23633 30.6265 7.62656 35.5194 10.5091 39.2306L12.0886 38.0038C9.55443 34.741 8.23633 30.324 8.23633 24.6523H6.23633ZM10.5109 39.233C13.488 43.0422 18.2013 44.8477 24.4004 44.8477V42.8477C18.5813 42.8477 14.5602 41.1662 12.0867 38.0014L10.5109 39.233ZM24.4004 44.8477C26.7878 44.8477 28.6487 44.6886 29.9075 44.3262L29.3542 42.4043C28.3786 42.6851 26.7525 42.8477 24.4004 42.8477V44.8477ZM29.9075 44.3262C31.0885 43.9862 32.1372 43.4484 32.6416 42.5238L30.8858 41.5661C30.7807 41.7587 30.4075 42.101 29.3542 42.4043L29.9075 44.3262ZM32.6303 42.5439C33.071 41.7785 33.2461 40.8313 33.2461 39.7852H31.2461C31.2461 40.6348 31.0996 41.1942 30.897 41.546L32.6303 42.5439ZM33.2461 39.7852V32.9297H31.2461V39.7852H33.2461ZM33.2461 32.9297C33.2461 31.24 32.8911 29.7254 31.7735 28.9005L30.5858 30.5097C30.8901 30.7342 31.2461 31.3694 31.2461 32.9297H33.2461ZM31.7828 28.9074C30.8853 28.2289 29.6328 27.8498 28.1509 27.6712L27.9116 29.6569C29.2396 29.8169 30.086 30.1318 30.5766 30.5027L31.7828 28.9074ZM29.0312 28.6641V28.2324H27.0312V28.6641H29.0312ZM28.0312 29.2324H40.1934V27.2324H28.0312V29.2324ZM39.1934 28.2324V28.6641H41.1934V28.2324H39.1934ZM40.0879 27.6696C38.8989 27.7957 37.8698 28.0657 37.0821 28.5471L38.125 30.2537C38.556 29.9903 39.2534 29.7694 40.2988 29.6585L40.0879 27.6696ZM37.0996 28.5366C36.3193 28.9918 35.7358 29.6309 35.4418 30.4641L37.3278 31.1297C37.4399 30.8118 37.6689 30.5199 38.1074 30.2642L37.0996 28.5366ZM35.4418 30.4641C35.186 31.1887 35.0801 32.0763 35.0801 33.082H37.0801C37.0801 32.1919 37.1773 31.5561 37.3278 31.1297L35.4418 30.4641ZM35.0801 33.082V43.4922H37.0801V33.082H35.0801ZM35.821 42.5263C32.1839 43.5017 28.4286 43.9902 24.5527 43.9902V45.9902C28.5987 45.9902 32.5284 45.48 36.3391 44.4581L35.821 42.5263ZM24.5527 43.9902C22.5599 43.9902 20.5931 43.8256 18.6515 43.4965L18.3173 45.4684C20.3705 45.8164 22.4492 45.9902 24.5527 45.9902V43.9902ZM18.6515 43.4965C16.7819 43.1796 14.8034 42.4694 12.7128 41.3424L11.7638 43.1029C14.0065 44.3119 16.1921 45.1082 18.3173 45.4684L18.6515 43.4965ZM12.7128 41.3424C10.6964 40.2555 8.89291 38.6371 7.30925 36.4555L5.69075 37.6304C7.4248 40.0192 9.44678 41.8539 11.7638 43.1029L12.7128 41.3424ZM7.30994 36.4565C4.94801 33.1947 3.76758 29.5162 3.76758 25.3887H1.76758C1.76758 29.9278 3.07543 34.0188 5.69006 37.6295L7.30994 36.4565ZM3.76758 25.3887C3.76758 22.9929 4.20916 20.6615 5.09569 18.3888L3.23243 17.662C2.25699 20.1627 1.76758 22.7402 1.76758 25.3887H3.76758ZM5.09345 18.3945C5.99499 16.1245 7.28133 14.0984 8.9563 12.3107L7.49682 10.9432C5.65096 12.9133 4.22897 15.1528 3.23468 17.6563L5.09345 18.3945ZM8.9561 12.3109C10.6317 10.5236 12.6803 9.11162 15.1168 8.07892L14.3363 6.23749C11.6609 7.37146 9.37612 8.93864 7.49703 10.943L8.9561 12.3109ZM15.1219 8.07672C17.539 7.03628 20.2376 6.50781 23.2324 6.50781V4.50781C19.9981 4.50781 17.0261 5.0796 14.3312 6.23969L15.1219 8.07672ZM23.2324 6.50781C24.3872 6.50781 25.5149 6.58912 26.6162 6.75108L26.9072 4.77236C25.7064 4.59578 24.4813 4.50781 23.2324 4.50781V6.50781ZM26.6305 6.75307C27.7403 6.89996 29.4264 7.21457 31.706 7.70426L32.126 5.74887C29.8353 5.25678 28.0852 4.92817 26.8929 4.77036L26.6305 6.75307ZM31.6952 7.70188C32.5936 7.90528 33.3337 8.03125 33.8457 8.03125V6.03125C33.5791 6.03125 33.0327 5.95409 32.1368 5.75125L31.6952 7.70188ZM33.8457 8.03125C34.435 8.03125 34.9965 7.88102 35.4874 7.54693C35.9723 7.21694 36.3266 6.74983 36.5791 6.21202L34.7686 5.3622C34.6317 5.65381 34.4867 5.80877 34.3622 5.8935C34.2437 5.97413 34.0858 6.03125 33.8457 6.03125V8.03125ZM35.6738 6.78711H36.0801V4.78711H35.6738V6.78711ZM35.0801 5.78711V14.3691H37.0801V5.78711H35.0801ZM42.4023 7.13281H41.4023V8.13281H42.4023V7.13281ZM42.4023 6.59961V5.59961H41.4023V6.59961H42.4023ZM60.6328 7.56445L60.2247 8.47739L60.2286 8.47914L60.6328 7.56445ZM64.0098 10.0273L63.2276 10.6504L63.2334 10.6577L63.2394 10.6649L64.0098 10.0273ZM65.7363 13.1504L64.7805 13.4445L64.7848 13.4578L65.7363 13.1504ZM65.4062 20.3105L64.4976 19.893L64.495 19.8986L65.4062 20.3105ZM62.791 23.5098L62.1874 22.7125L62.1819 22.7167L62.791 23.5098ZM58.3984 25.3379L58.2187 24.3542L57.3984 24.504V25.3379H58.3984ZM58.3984 25.4395H57.3984V26.0659L57.9622 26.3393L58.3984 25.4395ZM64.5938 31.8887L63.7323 32.3965L63.7329 32.3975L64.5938 31.8887ZM67.9707 37.6016L67.1098 38.1104L67.1117 38.1135L67.9707 37.6016ZM71.627 42.4512L71.0317 43.2548L71.0388 43.2599L71.627 42.4512ZM74.3691 43.5938H75.3691V42.6836L74.4631 42.5982L74.3691 43.5938ZM74.3691 44V45H75.3691V44H74.3691ZM67.5645 44L66.7732 44.6114L67.0734 45H67.5645V44ZM66.752 42.9336L65.9382 43.5148L65.945 43.5243L65.952 43.5336L66.752 42.9336ZM65.9395 41.8164L65.1074 42.3711L65.1209 42.3913L65.1353 42.4108L65.9395 41.8164ZM65.1777 40.6738L64.3251 41.1964L64.3351 41.2127L64.3457 41.2285L65.1777 40.6738ZM64.5938 39.7852L63.7381 40.3027L63.8009 40.4065L63.8866 40.4923L64.5938 39.7852ZM60.125 32.3965L59.2658 32.9081L59.2693 32.914L60.125 32.3965ZM57.3574 28.7402L56.644 29.4409L56.6503 29.4474L56.6567 29.4537L57.3574 28.7402ZM52.5332 25.9473L52.3772 26.935L52.3811 26.9356L52.5332 25.9473ZM50.248 25.7949V24.7949H49.248V25.7949H50.248ZM54.3105 43.5938H55.3105V42.6245L54.3418 42.5942L54.3105 43.5938ZM54.3105 44V45H55.3105V44H54.3105ZM42.4023 44H41.4023V45H42.4023V44ZM42.4023 43.5938L42.3569 42.5948L41.4023 42.6382V43.5938H42.4023ZM44.3828 43.1875L44.7636 44.1122L44.7751 44.1074L44.7865 44.1024L44.3828 43.1875ZM45.8047 41.918L44.962 41.3796L44.9581 41.3858L45.8047 41.918ZM50.248 24.8047H49.248V25.8047H50.248V24.8047ZM57.8652 23.8398L57.4571 22.9269L57.4531 22.9287L57.8652 23.8398ZM60.9883 21.0977L61.8672 21.5748L61.8699 21.5695L60.9883 21.0977ZM61.0898 12.4902L60.1661 12.8733L60.1678 12.8773L61.0898 12.4902ZM58.1445 9.01172L57.5758 9.83436L57.5875 9.84221L58.1445 9.01172ZM50.248 7.81836L50.0055 6.84822L49.248 7.03758V7.81836H50.248ZM42.9102 6.13281H42.4023V8.13281H42.9102V6.13281ZM43.4023 7.13281V6.59961H41.4023V7.13281H43.4023ZM42.4023 7.59961H55.3516V5.59961H42.4023V7.59961ZM55.3516 7.59961C57.3359 7.59961 58.9485 7.90683 60.2247 8.47738L61.0409 6.65153C59.4396 5.93562 57.5312 5.59961 55.3516 5.59961V7.59961ZM60.2286 8.47914C61.5724 9.07289 62.5544 9.80538 63.2276 10.6504L64.7919 9.40427C63.8739 8.25191 62.6047 7.34248 61.037 6.64977L60.2286 8.47914ZM63.2394 10.6649C63.9771 11.5563 64.4846 12.4826 64.7805 13.4445L66.6921 12.8563C66.311 11.6177 65.6674 10.4619 64.7802 9.38978L63.2394 10.6649ZM64.7848 13.4578C65.1108 14.4671 65.2695 15.4468 65.2695 16.4004H67.2695C67.2695 15.2212 67.0728 14.0342 66.6879 12.843L64.7848 13.4578ZM65.2695 16.4004C65.2695 17.6078 65.014 18.769 64.4976 19.893L66.3149 20.728C66.9495 19.3469 67.2695 17.9013 67.2695 16.4004H65.2695ZM64.495 19.8986C64.0116 20.9679 63.2523 21.9062 62.1874 22.7125L63.3947 24.307C64.6996 23.319 65.6837 22.1245 66.3175 20.7225L64.495 19.8986ZM62.1819 22.7167C61.1641 23.4984 59.8561 24.055 58.2187 24.3542L58.5782 26.3216C60.4616 25.9775 62.0819 25.3154 63.4002 24.3028L62.1819 22.7167ZM57.3984 25.3379V25.4395H59.3984V25.3379H57.3984ZM57.9622 26.3393C59.9509 27.3035 61.8893 29.27 63.7323 32.3965L65.4552 31.3809C63.5066 28.0751 61.3147 25.7421 58.8347 24.5396L57.9622 26.3393ZM63.7329 32.3975L67.1099 38.1104L68.8316 37.0927L65.4546 31.3798L63.7329 32.3975ZM67.1117 38.1135C67.8842 39.4096 68.5902 40.4858 69.2289 41.333C69.8585 42.1681 70.4599 42.8312 71.0317 43.2547L72.2222 41.6476C71.8799 41.3941 71.415 40.9104 70.8258 40.129C70.2458 39.3595 69.5806 38.3495 68.8297 37.0896L67.1117 38.1135ZM71.0388 43.2599C72.0752 44.0137 73.1564 44.4838 74.2752 44.5893L74.4631 42.5982C73.7876 42.5344 73.0407 42.2428 72.2151 41.6424L71.0388 43.2599ZM73.3691 43.5938V44H75.3691V43.5938H73.3691ZM74.3691 43H67.5645V45H74.3691V43ZM68.3557 43.3886C68.0706 43.0195 67.8027 42.6679 67.552 42.3336L65.952 43.5336C66.209 43.8764 66.4828 44.2357 66.7732 44.6114L68.3557 43.3886ZM67.5657 42.3524C67.3083 41.992 67.0343 41.6152 66.7436 41.222L65.1353 42.4108C65.4202 42.7962 65.6878 43.1642 65.9382 43.5148L67.5657 42.3524ZM66.7715 41.2617C66.6443 41.0708 66.6237 41.04 66.4541 40.7856C66.4029 40.7088 66.3096 40.5689 66.2478 40.4762C66.2455 40.4727 66.2362 40.4588 66.2339 40.4553C66.2333 40.4544 66.2327 40.4535 66.2321 40.4526C66.2315 40.4518 66.231 40.4509 66.2304 40.45C66.2298 40.4491 66.2292 40.4482 66.2286 40.4474C66.228 40.4465 66.2274 40.4456 66.2269 40.4447C66.2267 40.4444 66.2235 40.4397 66.2233 40.4394C66.2216 40.4368 66.2216 40.4368 66.2198 40.4342C66.196 40.3984 66.2153 40.4273 66.1913 40.3914C66.1817 40.377 66.143 40.319 66.1328 40.3036C66.127 40.2949 66.1237 40.2899 66.1178 40.2812C66.1145 40.2762 66.1061 40.2637 66.1028 40.2586C66.1012 40.2562 66.074 40.2155 66.0723 40.2129C66.0657 40.2029 66.0171 40.13 66.0098 40.1191L64.3457 41.2285C64.3598 41.2497 64.4572 41.3958 64.4687 41.413C64.4836 41.4355 64.5714 41.5671 64.5837 41.5856C64.6386 41.6679 64.6386 41.6679 64.6908 41.7463C64.731 41.8064 64.7526 41.8388 64.79 41.895C64.8448 41.9771 64.9204 42.0906 64.9646 42.1569C64.9842 42.1864 64.9843 42.1864 65.0033 42.2149C65.0179 42.2369 65.026 42.249 65.04 42.2699C65.0497 42.2845 65.1004 42.3605 65.1074 42.3711L66.7715 41.2617ZM66.0303 40.1513C65.8674 39.8854 65.732 39.6699 65.6262 39.5089C65.5472 39.3886 65.4225 39.1997 65.3009 39.078L63.8866 40.4923C63.8412 40.4468 63.8253 40.4194 63.8572 40.4636C63.8782 40.4927 63.9101 40.5392 63.9548 40.6073C64.0437 40.7425 64.1665 40.9375 64.3251 41.1964L66.0303 40.1513ZM65.4494 39.2676L60.9807 31.879L59.2693 32.914L63.7381 40.3027L65.4494 39.2676ZM60.9842 31.8848C60.0562 30.3265 59.0832 29.0336 58.0581 28.0268L56.6567 29.4537C57.5274 30.3089 58.3995 31.4534 59.2658 32.9081L60.9842 31.8848ZM58.0709 28.0395C57.0949 27.0458 56.1351 26.2874 55.1894 25.8146L54.295 27.6034C54.9743 27.9431 55.7579 28.5388 56.644 29.4409L58.0709 28.0395ZM55.1894 25.8146C54.3151 25.3774 53.4775 25.0808 52.6853 24.9589L52.3811 26.9356C52.9092 27.0169 53.5443 27.2281 54.295 27.6034L55.1894 25.8146ZM52.6892 24.9595C51.98 24.8475 51.1636 24.7949 50.248 24.7949V26.7949C51.0929 26.7949 51.7999 26.8439 52.3772 26.935L52.6892 24.9595ZM49.248 25.7949V39.4805H51.248V25.7949H49.248ZM49.248 39.4805C49.248 40.9707 49.6294 42.2703 50.5522 43.2047C51.4717 44.1357 52.7734 44.5462 54.2793 44.5933L54.3418 42.5942C53.1393 42.5567 52.4098 42.2393 51.9752 41.7993C51.5438 41.3625 51.248 40.6478 51.248 39.4805H49.248ZM53.3105 43.5938V44H55.3105V43.5938H53.3105ZM54.3105 43H42.4023V45H54.3105V43ZM43.4023 44V43.5938H41.4023V44H43.4023ZM42.4478 44.5927C43.2856 44.5546 44.0626 44.4008 44.7636 44.1122L44.0021 42.2628C43.552 42.4482 43.0087 42.5652 42.3569 42.5948L42.4478 44.5927ZM44.7865 44.1024C45.5647 43.7591 46.1852 43.1918 46.6513 42.4501L44.9581 41.3858C44.6794 41.8291 44.3519 42.1081 43.9792 42.2726L44.7865 44.1024ZM46.6474 42.4564C47.1731 41.6336 47.3887 40.613 47.3887 39.4805H45.3887C45.3887 40.3792 45.215 40.9836 44.962 41.3796L46.6474 42.4564ZM47.3887 39.4805V11.1953H45.3887V39.4805H47.3887ZM47.3887 11.1953C47.3887 9.57791 46.9969 8.16596 45.9388 7.28012L44.6549 8.81363C45.0526 9.14654 45.3887 9.83355 45.3887 11.1953H47.3887ZM45.9388 7.28012C45.0502 6.53613 44.032 6.13281 42.9102 6.13281V8.13281C43.5148 8.13281 44.0879 8.33887 44.6549 8.81363L45.9388 7.28012ZM50.248 25.8047H52.3809V23.8047H50.248V25.8047ZM52.3809 25.8047C54.7006 25.8047 56.6827 25.4724 58.2774 24.751L57.4531 22.9287C56.204 23.4938 54.5299 23.8047 52.3809 23.8047V25.8047ZM58.2734 24.7528C59.8775 24.0356 61.1021 22.984 61.8671 21.5747L60.1094 20.6206C59.588 21.5811 58.7306 22.3576 57.4571 22.9269L58.2734 24.7528ZM61.8699 21.5695C62.6089 20.1889 62.9531 18.5534 62.9531 16.7051H60.9531C60.9531 18.3099 60.6542 19.6027 60.1066 20.6258L61.8699 21.5695ZM62.9531 16.7051C62.9531 15.1289 62.6371 13.5926 62.0119 12.1032L60.1678 12.8773C60.6936 14.13 60.9531 15.4037 60.9531 16.7051H62.9531ZM62.0136 12.1072C61.3542 10.5171 60.2342 9.20919 58.7016 8.18123L57.5875 9.84221C58.8309 10.6762 59.6744 11.6874 60.1661 12.8732L62.0136 12.1072ZM58.7132 8.18916C57.1201 7.08778 55.0443 6.58984 52.584 6.58984V8.58984C54.7956 8.58984 56.4267 9.03982 57.5758 9.83428L58.7132 8.18916ZM52.584 6.58984C51.5913 6.58984 50.7234 6.66873 50.0055 6.84822L50.4906 8.7885C50.9914 8.6633 51.6809 8.58984 52.584 8.58984V6.58984ZM49.248 7.81836V24.8047H51.248V7.81836H49.248ZM93.666 6.14258L94.61 5.81269L94.3759 5.14258H93.666V6.14258ZM104.863 38.1855L103.919 38.5154L103.922 38.5219L104.863 38.1855ZM108.037 43.2129L107.643 44.132L107.663 44.1404L107.682 44.1479L108.037 43.2129ZM109.891 43.5938H110.891V42.6805L109.981 42.5979L109.891 43.5938ZM109.891 44V45H110.891V44H109.891ZM97.6777 44H96.6777V45H97.6777V44ZM97.6777 43.5938V42.5938H96.6777V43.5938H97.6777ZM100.572 43.2383L100.242 42.2944L100.572 43.2383ZM101.105 38.998L102.054 38.6818L102.032 38.6144L102 38.5508L101.105 38.998ZM101.004 38.6934H102.004V38.5303L101.952 38.3757L101.004 38.6934ZM97.6777 28.7656L98.6259 28.4479L98.3973 27.7656H97.6777V28.7656ZM84.7285 28.7656V27.7656H84.0008L83.777 28.4581L84.7285 28.7656ZM81.7578 37.957L82.709 38.2655L82.7093 38.2646L81.7578 37.957ZM81.9355 43.0859L81.3747 43.9139L81.384 43.9202L81.3934 43.9262L81.9355 43.0859ZM84.1699 43.5938H85.1699V42.5938H84.1699V43.5938ZM84.1699 44V45H85.1699V44H84.1699ZM75.3848 44H74.3848V45H75.3848V44ZM75.3848 43.5938L75.2906 42.5982L74.3848 42.6839V43.5938H75.3848ZM78.3809 42.1719L77.6376 41.5029L77.6368 41.5037L78.3809 42.1719ZM80.3613 38.3379L79.4112 38.0262L79.4108 38.0273L80.3613 38.3379ZM90.9238 6.14258V5.14258H90.1995L89.9737 5.83085L90.9238 6.14258ZM85.1602 27.4199L84.2083 27.1135L83.7877 28.4199H85.1602V27.4199ZM97.0684 27.4199V28.4199H98.469L98.0142 27.0952L97.0684 27.4199ZM90.9746 9.67188L91.9204 9.34714L91.6886 8.67188H90.9746V9.67188ZM90.873 9.67188V8.67188H90.1444L89.9211 9.36547L90.873 9.67188ZM92.722 6.47246L103.919 38.5154L105.807 37.8557L94.61 5.81269L92.722 6.47246ZM103.922 38.5219C104.522 40.2023 105.117 41.5082 105.722 42.367L107.357 41.2151C106.912 40.5842 106.39 39.4865 105.805 37.8492L103.922 38.5219ZM105.722 42.367C106.282 43.1622 106.913 43.8191 107.643 44.132L108.431 42.2937C108.213 42.2004 107.846 41.9094 107.357 41.2151L105.722 42.367ZM107.682 44.1479C108.286 44.3767 109 44.5169 109.8 44.5896L109.981 42.5979C109.292 42.5352 108.77 42.4215 108.392 42.2779L107.682 44.1479ZM108.891 43.5938V44H110.891V43.5938H108.891ZM109.891 43H97.6777V45H109.891V43ZM98.6777 44V43.5938H96.6777V44H98.6777ZM97.6777 44.5938C98.972 44.5938 100.068 44.4741 100.903 44.1821L100.242 42.2944C99.7219 42.4764 98.8887 42.5938 97.6777 42.5938V44.5938ZM100.903 44.1821C101.483 43.9789 101.934 43.5859 102.219 43.0439C102.49 42.5291 102.588 41.9285 102.588 41.3086H100.588C100.588 41.7382 100.517 41.9839 100.449 42.1124C100.396 42.2135 100.338 42.2607 100.242 42.2944L100.903 44.1821ZM102.588 41.3086C102.588 40.5733 102.388 39.6831 102.054 38.6818L100.157 39.3143C100.466 40.2427 100.588 40.8929 100.588 41.3086H102.588ZM102 38.5508C101.979 38.5096 101.975 38.4958 101.978 38.5041C101.98 38.5091 101.985 38.5266 101.991 38.5544C101.996 38.5811 102.004 38.6294 102.004 38.6934H100.004C100.004 39.0159 100.139 39.302 100.211 39.4453L102 38.5508ZM101.952 38.3757L98.6259 28.4479L96.7295 29.0833L100.056 39.011L101.952 38.3757ZM97.6777 27.7656H84.7285V29.7656H97.6777V27.7656ZM83.777 28.4581L80.8063 37.6495L82.7093 38.2646L85.6801 29.0732L83.777 28.4581ZM80.8066 37.6485C80.3879 38.9394 80.1484 40.0627 80.1484 40.9785H82.1484C82.1484 40.3709 82.3152 39.4799 82.709 38.2655L80.8066 37.6485ZM80.1484 40.9785C80.1484 42.1396 80.433 43.2759 81.3747 43.9139L82.4964 42.258C82.3886 42.185 82.1484 41.9164 82.1484 40.9785H80.1484ZM81.3934 43.9262C82.1454 44.4114 83.1097 44.5938 84.1699 44.5938V42.5938C83.3005 42.5938 82.7751 42.4376 82.4777 42.2456L81.3934 43.9262ZM83.1699 43.5938V44H85.1699V43.5938H83.1699ZM84.1699 43H75.3848V45H84.1699V43ZM76.3848 44V43.5938H74.3848V44H76.3848ZM75.4789 44.5893C76.9469 44.4504 78.1904 43.8807 79.1249 42.84L77.6368 41.5037C77.0817 42.1219 76.3278 42.5001 75.2906 42.5982L75.4789 44.5893ZM79.1242 42.8408C80.0176 41.8481 80.7323 40.4223 81.3119 38.6485L79.4108 38.0273C78.8732 39.6728 78.2675 40.803 77.6376 41.5029L79.1242 42.8408ZM81.3115 38.6496L91.874 6.45431L89.9737 5.83085L79.4112 38.0262L81.3115 38.6496ZM90.9238 7.14258H93.666V5.14258H90.9238V7.14258ZM85.1602 28.4199H97.0684V26.4199H85.1602V28.4199ZM98.0142 27.0952L91.9204 9.34714L90.0288 9.99661L96.1226 27.7447L98.0142 27.0952ZM90.9746 8.67188H90.873V10.6719H90.9746V8.67188ZM89.9211 9.36547L84.2083 27.1135L86.1121 27.7263L91.8249 9.97828L89.9211 9.36547ZM151.15 6.59961H152.15V5.59961H151.15V6.59961ZM151.15 7.03125L151.274 8.02353L152.15 7.91403V7.03125H151.15ZM148.891 7.58984L149.291 8.506L149.298 8.50315L149.304 8.50021L148.891 7.58984ZM147.621 9.03711L148.54 9.43104L148.544 9.42325L147.621 9.03711ZM147.164 44.9395V45.9395H148.164V44.9395H147.164ZM146.91 44.9395L146.165 45.6069L146.464 45.9395H146.91V44.9395ZM118.193 12.8965L118.938 12.2291L117.193 10.2823V12.8965H118.193ZM119.082 42.1719L118.266 42.7499L118.267 42.7516L119.082 42.1719ZM122.357 43.5938H123.357V42.6363L122.401 42.5947L122.357 43.5938ZM122.357 44V45H123.357V44H122.357ZM112.988 44H111.988V45H112.988V44ZM112.988 43.5938L112.94 42.5949L111.988 42.641V43.5938H112.988ZM115.426 42.9336L115.986 43.7619L115.991 43.7583L115.426 42.9336ZM116.67 40.75L115.697 40.5184L115.694 40.5297L116.67 40.75ZM117.051 11.5508H118.051V11.1699L117.797 10.8856L117.051 11.5508ZM115.807 10.1543L115.055 10.8143L115.06 10.8195L115.807 10.1543ZM113.166 7.79297L112.71 8.68279L112.719 8.68747L112.728 8.69196L113.166 7.79297ZM110.703 7.03125H109.703V7.87359L110.533 8.01671L110.703 7.03125ZM110.703 6.59961V5.59961H109.703V6.59961H110.703ZM117.736 6.59961L118.482 5.93369L118.184 5.59961H117.736V6.59961ZM146.021 38.2871L145.275 38.953L147.021 40.9091V38.2871H146.021ZM145.793 10.0781L144.804 10.2274L144.806 10.2365L144.807 10.2455L145.793 10.0781ZM144.65 7.91992L143.986 8.6674L143.996 8.67629L144.65 7.91992ZM141.756 7.03125H140.756V7.99353L141.717 8.03051L141.756 7.03125ZM141.756 6.59961V5.59961H140.756V6.59961H141.756ZM150.15 6.59961V7.03125H152.15V6.59961H150.15ZM151.026 6.03897C150.027 6.16383 149.164 6.36731 148.477 6.67948L149.304 8.50021C149.735 8.30457 150.377 8.13565 151.274 8.02353L151.026 6.03897ZM148.49 6.67369C147.643 7.04435 147.069 7.76732 146.699 8.65097L148.544 9.42325C148.783 8.85117 149.055 8.6093 149.291 8.506L148.49 6.67369ZM146.702 8.64319C146.318 9.53904 146.164 10.7317 146.164 12.1348H148.164C148.164 10.8295 148.315 9.95706 148.54 9.43103L146.702 8.64319ZM146.164 12.1348V44.9395H148.164V12.1348H146.164ZM147.164 43.9395H146.91V45.9395H147.164V43.9395ZM147.655 44.2721L118.938 12.2291L117.449 13.5639L146.165 45.6069L147.655 44.2721ZM117.193 12.8965V35.9004H119.193V12.8965H117.193ZM117.193 35.9004C117.193 37.8241 117.269 39.3129 117.435 40.3275L119.409 40.0045C119.27 39.1572 119.193 37.8022 119.193 35.9004H117.193ZM117.435 40.3275C117.594 41.2975 117.843 42.1523 118.266 42.7499L119.898 41.5939C119.746 41.3789 119.555 40.8966 119.409 40.0045L117.435 40.3275ZM118.267 42.7516C119.141 43.9801 120.591 44.5179 122.314 44.5928L122.401 42.5947C121.009 42.5342 120.275 42.1241 119.897 41.5921L118.267 42.7516ZM121.357 43.5938V44H123.357V43.5938H121.357ZM122.357 43H112.988V45H122.357V43ZM113.988 44V43.5938H111.988V44H113.988ZM113.037 44.5926C114.182 44.5371 115.2 44.2936 115.986 43.7619L114.865 42.1053C114.501 42.3522 113.893 42.5488 112.94 42.5949L113.037 44.5926ZM115.991 43.7583C116.875 43.1526 117.38 42.146 117.645 40.9703L115.694 40.5297C115.486 41.453 115.162 41.9021 114.86 42.1089L115.991 43.7583ZM117.643 40.9816C117.925 39.798 118.051 38.1033 118.051 35.9512H116.051C116.051 38.0647 115.923 39.5692 115.697 40.5184L117.643 40.9816ZM118.051 35.9512V11.5508H116.051V35.9512H118.051ZM117.797 10.8856L116.553 9.48909L115.06 10.8195L116.304 12.216L117.797 10.8856ZM116.558 9.49436C115.454 8.23703 114.46 7.31107 113.604 6.89398L112.728 8.69196C113.192 8.91809 113.959 9.56635 115.055 10.8142L116.558 9.49436ZM113.622 6.90315C112.847 6.50567 111.923 6.22677 110.873 6.04579L110.533 8.01671C111.447 8.17428 112.164 8.40318 112.71 8.68279L113.622 6.90315ZM111.703 7.03125V6.59961H109.703V7.03125H111.703ZM110.703 7.59961H117.736V5.59961H110.703V7.59961ZM116.99 7.26553L145.275 38.953L146.768 37.6212L118.482 5.93369L116.99 7.26553ZM147.021 38.2871V14.1406H145.021V38.2871H147.021ZM147.021 14.1406C147.021 12.3169 146.946 10.8939 146.779 9.91071L144.807 10.2455C144.945 11.0566 145.021 12.342 145.021 14.1406H147.021ZM146.782 9.92887C146.614 8.8202 146.129 7.87655 145.305 7.16356L143.996 8.67629C144.424 9.04662 144.701 9.54178 144.804 10.2274L146.782 9.92887ZM145.315 7.17251C144.453 6.40676 143.212 6.08653 141.794 6.03199L141.717 8.03051C142.94 8.07753 143.629 8.34976 143.986 8.66733L145.315 7.17251ZM142.756 7.03125V6.59961H140.756V7.03125H142.756ZM141.756 7.59961H151.15V5.59961H141.756V7.59961ZM154.781 7.03125H153.781V8.03125H154.781V7.03125ZM154.781 6.59961V5.59961H153.781V6.59961H154.781ZM174.738 7.13281L174.533 8.11153L174.544 8.11376L174.738 7.13281ZM179.309 8.50391L178.913 9.42246L178.917 9.42424L179.309 8.50391ZM182.812 10.4082L182.235 11.2248L182.245 11.2314L182.812 10.4082ZM185.301 12.4902L184.577 13.1799L184.585 13.1887L184.594 13.1973L185.301 12.4902ZM188.322 16.4512L187.453 16.9462L187.456 16.9506L188.322 16.4512ZM190.176 21.0215L189.206 21.2664L189.209 21.276L190.176 21.0215ZM190.201 30.873L189.234 30.618L190.201 30.873ZM188.449 35.1641L189.313 35.6686L189.315 35.6638L188.449 35.1641ZM185.707 38.7188L185 38.0116L184.994 38.0173L185.707 38.7188ZM182.025 41.6133L182.535 42.474L182.542 42.4697L182.549 42.4653L182.025 41.6133ZM154.781 44H153.781V45H154.781V44ZM154.781 43.5938V42.5938H153.781V43.5938H154.781ZM158.285 8.85938L157.381 9.28746L157.386 9.29707L157.391 9.30659L158.285 8.85938ZM162.627 8.37695L162.466 7.39002L161.627 7.52698V8.37695H162.627ZM163.312 41.2324L162.477 41.7824L162.485 41.7943L162.493 41.8059L163.312 41.2324ZM176.668 42.0703L176.939 43.0329L176.947 43.0305L176.668 42.0703ZM182.076 38.4902L182.803 39.1771L182.805 39.1745L182.076 38.4902ZM185.402 19.7012L184.441 19.9769L184.442 19.9789L185.402 19.7012ZM182.533 13.8867L181.734 14.4879L181.737 14.4918L182.533 13.8867ZM176.973 9.39258L176.539 10.2937L176.542 10.2949L176.973 9.39258ZM155.781 7.03125V6.59961H153.781V7.03125H155.781ZM154.781 7.59961H169.178V5.59961H154.781V7.59961ZM169.178 7.59961C171.134 7.59961 172.918 7.77228 174.533 8.11147L174.944 6.15416C173.174 5.7824 171.25 5.59961 169.178 5.59961V7.59961ZM174.544 8.11376C176.198 8.44122 177.652 8.87956 178.913 9.42245L179.704 7.58536C178.291 6.97721 176.698 6.50149 174.933 6.15186L174.544 8.11376ZM178.917 9.42424C180.22 9.97784 181.323 10.5798 182.235 11.2248L183.39 9.59163C182.339 8.84858 181.105 8.18101 179.7 7.58358L178.917 9.42424ZM182.245 11.2314C183.182 11.8775 183.956 12.528 184.577 13.1799L186.025 11.8006C185.292 11.0306 184.407 10.2931 183.38 9.58499L182.245 11.2314ZM184.594 13.1973C185.715 14.3191 186.668 15.5681 187.453 16.9462L189.191 15.9561C188.317 14.4228 187.256 13.0312 186.008 11.7831L184.594 13.1973ZM187.456 16.9506C188.239 18.3098 188.823 19.7476 189.206 21.2664L191.145 20.7765C190.717 19.0792 190.064 17.4701 189.189 15.9517L187.456 16.9506ZM189.209 21.276C189.609 22.7987 189.811 24.3719 189.811 25.998H191.811C191.811 24.2049 191.589 22.4604 191.143 20.767L189.209 21.276ZM189.811 25.998C189.811 27.6279 189.617 29.1667 189.234 30.618L191.168 31.1281C191.598 29.4986 191.811 27.7875 191.811 25.998H189.811ZM189.234 30.618C188.85 32.0766 188.299 33.4242 187.583 34.6643L189.315 35.6638C190.123 34.2633 190.74 32.7502 191.168 31.1281L189.234 30.618ZM187.586 34.6595C186.867 35.889 186.006 37.0058 185 38.0116L186.414 39.4259C187.541 38.2988 188.508 37.0459 189.313 35.6686L187.586 34.6595ZM184.994 38.0173C184.007 39.0205 182.845 39.9361 181.502 40.7613L182.549 42.4653C184.016 41.5639 185.308 40.5498 186.42 39.4202L184.994 38.0173ZM181.516 40.7526C180.399 41.4132 179.102 41.9573 177.615 42.3775L178.159 44.3022C179.786 43.8422 181.248 43.2352 182.535 42.474L181.516 40.7526ZM177.615 42.3775C176.184 42.7818 174.181 43 171.564 43V45C174.263 45 176.475 44.7781 178.159 44.3022L177.615 42.3775ZM171.564 43H154.781V45H171.564V43ZM155.781 44V43.5938H153.781V44H155.781ZM154.781 44.5938H155.289V42.5938H154.781V44.5938ZM155.289 44.5938C156.75 44.5938 157.958 44.0184 158.741 42.8207L157.067 41.7262C156.699 42.2889 156.164 42.5938 155.289 42.5938V44.5938ZM158.741 42.8207C159.415 41.7899 159.768 40.6706 159.768 39.4805H157.768C157.768 40.2539 157.544 40.9965 157.067 41.7262L158.741 42.8207ZM159.768 39.4805V11.2461H157.768V39.4805H159.768ZM159.768 11.2461C159.768 10.1903 159.589 9.2312 159.18 8.41216L157.391 9.30659C157.624 9.77401 157.768 10.406 157.768 11.2461H159.768ZM159.189 8.43129C158.812 7.63469 158.264 6.9932 157.522 6.58608L156.56 8.3397C156.867 8.50811 157.149 8.79761 157.381 9.28746L159.189 8.43129ZM157.522 6.58608C156.839 6.2115 156.087 6.03125 155.289 6.03125V8.03125C155.777 8.03125 156.194 8.13877 156.56 8.3397L157.522 6.58608ZM155.289 6.03125H154.781V8.03125H155.289V6.03125ZM161.627 8.37695V38.0078H163.627V8.37695H161.627ZM161.627 38.0078C161.627 39.53 161.859 40.8432 162.477 41.7824L164.148 40.6824C163.852 40.2336 163.627 39.3971 163.627 38.0078H161.627ZM162.493 41.8059C163.143 42.7347 164.118 43.2888 165.293 43.532L165.699 41.5735C164.91 41.4104 164.43 41.0843 164.132 40.659L162.493 41.8059ZM165.293 43.532C166.377 43.7562 167.897 43.8574 169.812 43.8574V41.8574C167.936 41.8574 166.579 41.7556 165.699 41.5735L165.293 43.532ZM169.812 43.8574C172.579 43.8574 174.962 43.5901 176.939 43.0328L176.397 41.1078C174.65 41.6 172.463 41.8574 169.812 41.8574V43.8574ZM176.947 43.0305C179.025 42.4261 180.974 41.1125 182.803 39.1771L181.349 37.8034C179.691 39.5581 178.035 40.6312 176.389 41.1101L176.947 43.0305ZM182.805 39.1745C184.189 37.6996 185.286 35.9117 186.104 33.8288L184.243 33.097C183.505 34.975 182.536 36.5387 181.347 37.806L182.805 39.1745ZM186.104 33.8288C186.941 31.701 187.342 29.1745 187.342 26.2773H185.342C185.342 29 184.964 31.2638 184.243 33.097L186.104 33.8288ZM187.342 26.2773C187.342 23.9643 187.015 21.6788 186.363 19.4235L184.442 19.9789C185.042 22.0568 185.342 24.1555 185.342 26.2773H187.342ZM186.364 19.4255C185.705 17.131 184.696 15.0796 183.329 13.2816L181.737 14.4918C182.944 16.0793 183.847 17.9041 184.441 19.9769L186.364 19.4255ZM183.332 13.2856C181.792 11.2378 179.81 9.63929 177.404 8.49022L176.542 10.2949C178.672 11.3125 180.397 12.7102 181.734 14.4878L183.332 13.2856ZM177.406 8.49148C174.988 7.32775 172.115 6.76758 168.822 6.76758V8.76758C171.894 8.76758 174.455 9.29074 176.539 10.2937L177.406 8.49148ZM168.822 6.76758C167.106 6.76758 164.982 6.97915 162.466 7.39002L162.788 9.36389C165.248 8.96225 167.255 8.76758 168.822 8.76758V6.76758ZM207.264 6.59961H208.264V5.59961H207.264V6.59961ZM207.264 7.03125V8.03125H208.264V7.03125H207.264ZM204.496 42.6289L203.873 43.4114L203.883 43.4191L204.496 42.6289ZM207.264 43.5938H208.264V42.5938H207.264V43.5938ZM207.264 44V45H208.264V44H207.264ZM195.406 44H194.406V45H195.406V44ZM195.406 43.5938V42.5938H194.406V43.5938H195.406ZM198.199 42.6543L198.826 43.4335L198.828 43.4319L198.199 42.6543ZM198.199 7.89453L197.605 8.69875L197.613 8.70476L198.199 7.89453ZM195.406 7.03125H194.406V8.03125H195.406V7.03125ZM195.406 6.59961V5.59961H194.406V6.59961H195.406ZM206.264 6.59961V7.03125H208.264V6.59961H206.264ZM207.264 6.03125C205.947 6.03125 204.77 6.4054 203.793 7.19149L205.047 8.74992C205.627 8.2834 206.346 8.03125 207.264 8.03125V6.03125ZM203.793 7.19149C202.686 8.08218 202.252 9.47848 202.252 11.0938H204.252C204.252 9.79756 204.597 9.11183 205.047 8.74992L203.793 7.19149ZM202.252 11.0938V39.4805H204.252V11.0938H202.252ZM202.252 39.4805C202.252 41.1079 202.728 42.4994 203.873 43.4113L205.119 41.8465C204.606 41.4381 204.252 40.7307 204.252 39.4805H202.252ZM203.883 43.4191C204.882 44.1934 206.018 44.5938 207.264 44.5938V42.5938C206.478 42.5938 205.769 42.3508 205.109 41.8387L203.883 43.4191ZM206.264 43.5938V44H208.264V43.5938H206.264ZM207.264 43H195.406V45H207.264V43ZM196.406 44V43.5938H194.406V44H196.406ZM195.406 44.5938C196.697 44.5938 197.854 44.215 198.826 43.4335L197.572 41.8751C196.987 42.3462 196.282 42.5938 195.406 42.5938V44.5938ZM198.828 43.4319C199.948 42.5264 200.393 41.1171 200.393 39.4805H198.393C198.393 40.7891 198.042 41.4957 197.57 41.8767L198.828 43.4319ZM200.393 39.4805V11.0938H198.393V39.4805H200.393ZM200.393 11.0938C200.393 9.40722 199.965 7.93738 198.785 7.08431L197.613 8.70476C198.025 9.00272 198.393 9.66569 198.393 11.0938H200.393ZM198.794 7.09036C197.823 6.37266 196.677 6.03125 195.406 6.03125V8.03125C196.302 8.03125 197.019 8.26536 197.605 8.69871L198.794 7.09036ZM196.406 7.03125V6.59961H194.406V7.03125H196.406ZM195.406 7.59961H207.264V5.59961H195.406V7.59961ZM248.777 35.1133L247.912 34.6124L247.91 34.6161L248.777 35.1133ZM241.693 42.3242L242.204 43.1843L242.207 43.1821L241.693 42.3242ZM221.686 42.3242L221.178 43.1859L221.182 43.188L221.686 42.3242ZM214.475 35.0879L213.608 35.5866L213.61 35.5903L214.475 35.0879ZM213.408 17.4668L212.491 17.069L212.489 17.0721L213.408 17.4668ZM217.775 11.1445L217.085 10.4213L217.081 10.4245L217.775 11.1445ZM224.174 6.98047L223.796 6.05471L223.793 6.05565L224.174 6.98047ZM239.053 6.92969L238.679 7.85726L238.685 7.85954L239.053 6.92969ZM245.375 10.9922L244.685 11.7156L244.688 11.7187L245.375 10.9922ZM238.189 8.12305L237.803 9.04534L237.809 9.04772L238.189 8.12305ZM226.789 7.46289L227.076 8.42076L227.085 8.41805L226.789 7.46289ZM221.838 10.2812L221.189 9.52029L221.185 9.5237L221.838 10.2812ZM217.623 33.7168L216.68 34.0489L216.683 34.0569L217.623 33.7168ZM221.152 39.582L220.437 40.2812L220.445 40.2891L221.152 39.582ZM226.104 42.8574L225.75 43.7931L225.761 43.797L226.104 42.8574ZM237.021 42.9336L237.346 43.8796L237.351 43.8777L237.021 42.9336ZM241.922 39.9121L242.608 40.6398L242.608 40.6396L241.922 39.9121ZM245.527 34.2246L244.595 33.8634L244.593 33.867L245.527 34.2246ZM250.393 25.3379C250.393 28.6671 249.567 31.7527 247.912 34.6124L249.643 35.6141C251.475 32.4478 252.393 29.0165 252.393 25.3379H250.393ZM247.91 34.6161C246.269 37.4797 244.03 39.7595 241.18 41.4663L242.207 43.1821C245.349 41.3004 247.833 38.7729 249.645 35.6105L247.91 34.6161ZM241.183 41.4642C238.349 43.1457 235.208 43.9902 231.74 43.9902V45.9902C235.551 45.9902 239.046 45.0574 242.204 43.1843L241.183 41.4642ZM231.74 43.9902C228.254 43.9902 225.078 43.1452 222.189 41.4604L221.182 43.188C224.387 45.0579 227.914 45.9902 231.74 45.9902V43.9902ZM222.193 41.4625C219.293 39.7546 217.013 37.4656 215.339 34.5855L213.61 35.5903C215.457 38.7701 217.985 41.3053 221.178 43.1859L222.193 41.4625ZM215.341 34.5891C213.687 31.7143 212.859 28.5861 212.859 25.1855H210.859C210.859 28.9282 211.775 32.4016 213.608 35.5866L215.341 34.5891ZM212.859 25.1855C212.859 22.5724 213.351 20.1345 214.327 17.8615L212.489 17.0721C211.401 19.6064 210.859 22.3143 210.859 25.1855H212.859ZM214.326 17.8646C215.324 15.5626 216.704 13.5654 218.469 11.8646L217.081 10.4245C215.122 12.3122 213.592 14.5298 212.491 17.069L214.326 17.8646ZM218.466 11.8677C220.256 10.1588 222.283 8.83941 224.554 7.90528L223.793 6.05565C221.291 7.08507 219.053 8.54173 217.085 10.4213L218.466 11.8677ZM224.552 7.90622C226.835 6.97368 229.212 6.50781 231.689 6.50781V4.50781C228.954 4.50781 226.32 5.02371 223.796 6.05471L224.552 7.90622ZM231.689 6.50781C234.118 6.50781 236.446 6.95755 238.679 7.85724L239.426 6.00213C236.954 5.00599 234.372 4.50781 231.689 4.50781V6.50781ZM238.685 7.85954C240.916 8.74229 242.914 10.0256 244.685 11.7155L246.065 10.2688C244.112 8.40409 241.895 6.97906 239.421 5.99983L238.685 7.85954ZM244.688 11.7187C246.467 13.4012 247.863 15.397 248.877 17.7153L250.709 16.9136C249.591 14.3569 248.041 12.1378 246.062 10.2657L244.688 11.7187ZM248.877 17.7153C249.883 20.0149 250.393 22.5513 250.393 25.3379H252.393C252.393 22.3016 251.836 19.489 250.709 16.9136L248.877 17.7153ZM247.924 25.4395C247.924 20.3628 247.029 16.2587 245.131 13.2288L243.436 14.2907C245.058 16.8806 245.924 20.563 245.924 25.4395H247.924ZM245.131 13.2288C243.296 10.3002 241.12 8.24825 238.57 7.19837L237.809 9.04772C239.863 9.89368 241.75 11.5996 243.436 14.2907L245.131 13.2288ZM238.576 7.20077C236.179 6.19603 233.88 5.67578 231.689 5.67578V7.67578C233.561 7.67578 235.596 8.12037 237.803 9.04532L238.576 7.20077ZM231.689 5.67578C230.003 5.67578 228.27 5.95695 226.493 6.50773L227.085 8.41805C228.694 7.91935 230.227 7.67578 231.689 7.67578V5.67578ZM226.502 6.50506C224.653 7.05974 222.882 8.07654 221.189 9.5203L222.487 11.0422C224.01 9.74377 225.54 8.88167 227.076 8.42072L226.502 6.50506ZM221.185 9.5237C219.447 11.0214 218.055 13.0941 216.979 15.687L218.826 16.4536C219.815 14.07 221.046 12.2833 222.491 11.0388L221.185 9.5237ZM216.979 15.687C215.881 18.3318 215.354 21.5435 215.354 25.2871H217.354C217.354 21.7183 217.858 18.7854 218.826 16.4536L216.979 15.687ZM215.354 25.2871C215.354 28.588 215.788 31.5148 216.68 34.0489L218.566 33.3847C217.766 31.1115 217.354 28.4185 217.354 25.2871H215.354ZM216.683 34.0569C217.585 36.5527 218.831 38.6379 220.437 40.2811L221.867 38.8829C220.495 37.4793 219.387 35.6543 218.563 33.3767L216.683 34.0569ZM220.445 40.2891C222.041 41.8849 223.809 43.0605 225.75 43.793L226.457 41.9218C224.809 41.3002 223.277 40.2922 221.859 38.8749L220.445 40.2891ZM225.761 43.797C227.683 44.4975 229.678 44.8477 231.74 44.8477V42.8477C229.909 42.8477 228.146 42.5376 226.446 41.9179L225.761 43.797ZM231.74 44.8477C233.602 44.8477 235.472 44.5219 237.346 43.8795L236.697 41.9876C235.016 42.564 233.365 42.8477 231.74 42.8477V44.8477ZM237.351 43.8777C239.286 43.2022 241.04 42.1179 242.608 40.6398L241.236 39.1844C239.859 40.4824 238.345 41.4124 236.692 41.9895L237.351 43.8777ZM242.608 40.6396C244.231 39.1092 245.506 37.0753 246.461 34.5823L244.593 33.867C243.72 36.1473 242.592 37.9051 241.236 39.1846L242.608 40.6396ZM246.46 34.5858C247.448 32.0351 247.924 28.9766 247.924 25.4395H245.924C245.924 28.8085 245.469 31.6068 244.595 33.8634L246.46 34.5858ZM275.26 13.7852V14.7852H276.26V13.7852H275.26ZM274.854 13.7852L273.862 13.9149L273.976 14.7852H274.854V13.7852ZM272.467 9.03711L271.751 9.73538L271.76 9.74422L272.467 9.03711ZM260.355 17.8984L259.423 18.2609L259.428 18.2714L259.432 18.2818L260.355 17.8984ZM264.494 22.2402L263.96 23.0858L263.971 23.0924L264.494 22.2402ZM268.404 24.5L267.918 25.3737L267.923 25.3764L268.404 24.5ZM274.803 29.0195L274.1 29.7306L274.104 29.7345L274.803 29.0195ZM275.844 39.7852L274.97 39.2987L274.968 39.3021L275.844 39.7852ZM261.879 44.3301L262.154 43.3685L262.141 43.365L261.879 44.3301ZM258.273 42.959L258.711 42.0596L258.652 42.031L258.59 42.0103L258.273 42.959ZM256.521 43.0859L255.615 42.6631L255.603 42.6885L255.593 42.7145L256.521 43.0859ZM256.09 44.7363V45.7363H256.894L257.066 44.9512L256.09 44.7363ZM255.658 44.7363H254.658V45.7363H255.658V44.7363ZM255.658 35.3672V34.3672H254.658V35.3672H255.658ZM256.09 35.3672L257.066 35.1503L256.892 34.3672H256.09V35.3672ZM270.613 42.6289L270.088 41.7781L270.082 41.7816L270.613 42.6289ZM271.73 31.8633L271.005 32.5518L271.014 32.5611L271.73 31.8633ZM265.916 27.7754L265.436 28.6527L265.446 28.6581L265.916 27.7754ZM259.289 23.3828L258.589 24.0968L258.596 24.1034L259.289 23.3828ZM257.182 20.3359L256.267 20.7409L256.269 20.7458L257.182 20.3359ZM261.752 7.36133L262.243 8.23224L262.25 8.22851L261.752 7.36133ZM272.619 6.72656L273.066 5.83214L272.999 5.79836L272.927 5.77512L272.619 6.72656ZM274.854 5.78711V4.78711H274.085L273.887 5.52945L274.854 5.78711ZM275.26 5.78711H276.26V4.78711H275.26V5.78711ZM275.26 12.7852H274.854V14.7852H275.26V12.7852ZM275.845 13.6554C275.578 11.6146 274.676 9.83193 273.174 8.33L271.76 9.74422C272.966 10.9506 273.655 12.3333 273.862 13.9149L275.845 13.6554ZM273.183 8.3389C271.629 6.74563 269.586 5.98047 267.16 5.98047V7.98047C269.135 7.98047 270.63 8.5864 271.751 9.73532L273.183 8.3389ZM267.16 5.98047C265.558 5.98047 264.097 6.35965 262.808 7.1409L263.844 8.85129C264.79 8.27837 265.885 7.98047 267.16 7.98047V5.98047ZM262.808 7.1409C261.533 7.91357 260.543 8.9725 259.85 10.3011L261.623 11.2262C262.148 10.2189 262.885 9.43278 263.844 8.85129L262.808 7.1409ZM259.85 10.3011C259.156 11.6312 258.822 13.1311 258.822 14.7754H260.822C260.822 13.4067 261.098 12.2321 261.623 11.2262L259.85 10.3011ZM258.822 14.7754C258.822 16.0442 259.015 17.2115 259.423 18.2609L261.287 17.536C260.985 16.7572 260.822 15.8425 260.822 14.7754H258.822ZM259.432 18.2818C259.857 19.3066 260.477 20.2145 261.282 21.0007L262.679 19.5696C262.062 18.9678 261.598 18.2845 261.279 17.5151L259.432 18.2818ZM261.282 21.0007C262.05 21.7503 262.945 22.4443 263.96 23.0857L265.028 21.3947C264.114 20.8174 263.333 20.2081 262.679 19.5696L261.282 21.0007ZM263.971 23.0924C264.953 23.6955 266.27 24.4566 267.918 25.3737L268.891 23.6263C267.254 22.7153 265.965 21.9698 265.017 21.3881L263.971 23.0924ZM267.923 25.3764C270.617 26.8569 272.665 28.3116 274.1 29.7306L275.506 28.3085C273.894 26.7144 271.675 25.1562 268.886 23.6236L267.923 25.3764ZM274.104 29.7345C275.393 30.9954 276.088 32.7622 276.088 35.1641H278.088C278.088 32.3524 277.259 30.0228 275.502 28.3045L274.104 29.7345ZM276.088 35.1641C276.088 36.5728 275.723 37.9469 274.97 39.2987L276.717 40.2716C277.624 38.6443 278.088 36.9376 278.088 35.1641H276.088ZM274.968 39.3021C274.256 40.593 273.162 41.6783 271.641 42.5478L272.633 44.2843C274.429 43.2579 275.807 41.9227 276.719 40.2682L274.968 39.3021ZM271.641 42.5478C270.17 43.3881 268.296 43.8379 265.967 43.8379V45.8379C268.547 45.8379 270.786 45.3397 272.633 44.2843L271.641 42.5478ZM265.967 43.8379C264.497 43.8379 263.23 43.6761 262.154 43.3686L261.604 45.2916C262.897 45.6611 264.356 45.8379 265.967 45.8379V43.8379ZM262.141 43.365C261.022 43.0613 259.879 42.6275 258.711 42.0596L257.836 43.8584C259.106 44.4754 260.366 44.9556 261.617 45.2952L262.141 43.365ZM258.59 42.0103C258.321 41.9208 258.079 41.8482 257.869 41.797C257.675 41.7497 257.448 41.7051 257.232 41.7051V43.7051C257.203 43.7051 257.242 43.7028 257.395 43.7401C257.533 43.7735 257.718 43.8279 257.957 43.9077L258.59 42.0103ZM257.232 41.7051C256.941 41.7051 256.619 41.7565 256.316 41.9188C255.999 42.0888 255.762 42.3492 255.615 42.6631L257.428 43.5088C257.416 43.5333 257.396 43.5669 257.364 43.6016C257.331 43.6367 257.295 43.6634 257.26 43.6818C257.194 43.7171 257.168 43.7051 257.232 43.7051V41.7051ZM255.593 42.7145C255.455 43.0585 255.296 43.692 255.113 44.5215L257.066 44.9512C257.256 44.0879 257.384 43.6212 257.45 43.4573L255.593 42.7145ZM256.09 43.7363H255.658V45.7363H256.09V43.7363ZM256.658 44.7363V35.3672H254.658V44.7363H256.658ZM255.658 36.3672H256.09V34.3672H255.658V36.3672ZM255.114 35.5841C255.76 38.4928 257.041 40.7898 259.021 42.3695L260.268 40.8063C258.727 39.5761 257.638 37.726 257.066 35.1503L255.114 35.5841ZM259.021 42.3695C260.98 43.9328 263.348 44.6953 266.068 44.6953V42.6953C263.744 42.6953 261.83 42.0529 260.268 40.8063L259.021 42.3695ZM266.068 44.6953C268.078 44.6953 269.798 44.3202 271.144 43.4762L270.082 41.7816C269.16 42.3594 267.851 42.6953 266.068 42.6953V44.6953ZM271.139 43.4797C272.425 42.6855 273.38 41.6781 273.918 40.4367L272.082 39.6415C271.74 40.4312 271.104 41.1504 270.088 41.7781L271.139 43.4797ZM273.918 40.4367C274.407 39.3069 274.66 38.1565 274.66 36.9922H272.66C272.66 37.8592 272.473 38.74 272.082 39.6415L273.918 40.4367ZM274.66 36.9922C274.66 34.6717 273.941 32.6987 272.447 31.1654L271.014 32.5611C272.093 33.6684 272.66 35.1148 272.66 36.9922H274.66ZM272.456 31.1748C271.081 29.727 269.038 28.3047 266.386 26.8927L265.446 28.6581C268.008 30.0221 269.841 31.3251 271.005 32.5518L272.456 31.1748ZM266.396 26.8981C264.606 25.9184 263.298 25.1684 262.461 24.6432L261.398 26.3373C262.288 26.8954 263.638 27.6688 265.436 28.6527L266.396 26.8981ZM262.461 24.6432C261.667 24.145 260.841 23.488 259.982 22.6622L258.596 24.1034C259.532 25.0042 260.466 25.7522 261.398 26.3373L262.461 24.6432ZM259.989 22.6689C259.201 21.8962 258.569 20.9849 258.094 19.9261L256.269 20.7458C256.843 22.023 257.616 23.1428 258.589 24.0968L259.989 22.6689ZM258.096 19.931C257.637 18.8941 257.395 17.6816 257.395 16.2734H255.395C255.395 17.9121 255.677 19.408 256.267 20.7409L258.096 19.931ZM257.395 16.2734C257.395 14.6988 257.809 13.1863 258.656 11.7217L256.926 10.7197C255.912 12.4712 255.395 14.3272 255.395 16.2734H257.395ZM258.656 11.7217C259.493 10.2769 260.68 9.1145 262.243 8.23221L261.26 6.49044C259.405 7.53784 257.951 8.94832 256.926 10.7197L258.656 11.7217ZM262.25 8.22851C263.793 7.3422 265.557 6.88867 267.566 6.88867V4.88867C265.243 4.88867 263.13 5.41691 261.254 6.49414L262.25 8.22851ZM267.566 6.88867C269.093 6.88867 270.674 7.14823 272.311 7.67801L272.927 5.77512C271.111 5.18771 269.323 4.88867 267.566 4.88867V6.88867ZM272.172 7.62099C272.634 7.85218 273.171 7.92969 273.711 7.92969V5.92969C273.337 5.92969 273.146 5.87177 273.066 5.83214L272.172 7.62099ZM273.711 7.92969C274.244 7.92969 274.737 7.73674 275.123 7.35115C275.482 6.99166 275.693 6.52196 275.82 6.04477L273.887 5.52945C273.811 5.81398 273.73 5.91556 273.708 5.93694C273.702 5.94351 273.707 5.93732 273.721 5.93154C273.734 5.92604 273.735 5.92969 273.711 5.92969V7.92969ZM274.854 6.78711H275.26V4.78711H274.854V6.78711ZM274.26 5.78711V13.7852H276.26V5.78711H274.26ZM318.195 35.1133L317.33 34.6124L317.328 34.6161L318.195 35.1133ZM311.111 42.3242L311.622 43.1843L311.625 43.1821L311.111 42.3242ZM291.104 42.3242L290.596 43.1859L290.6 43.188L291.104 42.3242ZM283.893 35.0879L283.026 35.5866L283.028 35.5903L283.893 35.0879ZM282.826 17.4668L281.909 17.069L281.907 17.0721L282.826 17.4668ZM287.193 11.1445L286.503 10.4213L286.499 10.4245L287.193 11.1445ZM293.592 6.98047L293.214 6.05471L293.211 6.05565L293.592 6.98047ZM308.471 6.92969L308.097 7.85726L308.103 7.85954L308.471 6.92969ZM314.793 10.9922L314.102 11.7156L314.106 11.7187L314.793 10.9922ZM307.607 8.12305L307.221 9.04534L307.227 9.04772L307.607 8.12305ZM296.207 7.46289L296.494 8.42076L296.503 8.41805L296.207 7.46289ZM291.256 10.2812L290.607 9.52029L290.603 9.5237L291.256 10.2812ZM287.041 33.7168L286.098 34.0489L286.101 34.0569L287.041 33.7168ZM290.57 39.582L289.855 40.2812L289.863 40.2891L290.57 39.582ZM295.521 42.8574L295.168 43.7931L295.179 43.797L295.521 42.8574ZM306.439 42.9336L306.764 43.8796L306.769 43.8777L306.439 42.9336ZM311.34 39.9121L312.026 40.6398L312.026 40.6396L311.34 39.9121ZM314.945 34.2246L314.013 33.8634L314.011 33.867L314.945 34.2246ZM319.811 25.3379C319.811 28.6671 318.985 31.7527 317.33 34.6124L319.061 35.6141C320.893 32.4478 321.811 29.0165 321.811 25.3379H319.811ZM317.328 34.6161C315.687 37.4797 313.448 39.7595 310.598 41.4663L311.625 43.1821C314.767 41.3004 317.251 38.7729 319.063 35.6105L317.328 34.6161ZM310.601 41.4642C307.767 43.1457 304.626 43.9902 301.158 43.9902V45.9902C304.969 45.9902 308.464 45.0574 311.622 43.1843L310.601 41.4642ZM301.158 43.9902C297.672 43.9902 294.496 43.1452 291.607 41.4604L290.6 43.188C293.805 45.0579 297.332 45.9902 301.158 45.9902V43.9902ZM291.611 41.4625C288.711 39.7546 286.431 37.4656 284.757 34.5855L283.028 35.5903C284.875 38.7701 287.403 41.3053 290.596 43.1859L291.611 41.4625ZM284.759 34.5891C283.105 31.7143 282.277 28.5861 282.277 25.1855H280.277C280.277 28.9282 281.193 32.4016 283.026 35.5866L284.759 34.5891ZM282.277 25.1855C282.277 22.5724 282.769 20.1345 283.745 17.8615L281.907 17.0721C280.819 19.6064 280.277 22.3143 280.277 25.1855H282.277ZM283.744 17.8646C284.742 15.5626 286.122 13.5654 287.887 11.8646L286.499 10.4245C284.54 12.3122 283.01 14.5298 281.909 17.069L283.744 17.8646ZM287.884 11.8677C289.674 10.1588 291.701 8.83941 293.972 7.90528L293.211 6.05565C290.709 7.08507 288.471 8.54173 286.503 10.4213L287.884 11.8677ZM293.97 7.90622C296.253 6.97368 298.63 6.50781 301.107 6.50781V4.50781C298.372 4.50781 295.738 5.02371 293.214 6.05471L293.97 7.90622ZM301.107 6.50781C303.536 6.50781 305.864 6.95755 308.097 7.85724L308.844 6.00213C306.372 5.00599 303.79 4.50781 301.107 4.50781V6.50781ZM308.103 7.85954C310.334 8.74229 312.332 10.0256 314.102 11.7155L315.483 10.2688C313.53 8.40409 311.313 6.97906 308.839 5.99983L308.103 7.85954ZM314.106 11.7187C315.884 13.4012 317.281 15.397 318.295 17.7153L320.127 16.9136C319.009 14.3569 317.459 12.1378 315.48 10.2657L314.106 11.7187ZM318.295 17.7153C319.301 20.0149 319.811 22.5513 319.811 25.3379H321.811C321.811 22.3016 321.254 19.489 320.127 16.9136L318.295 17.7153ZM317.342 25.4395C317.342 20.3628 316.447 16.2587 314.549 13.2288L312.854 14.2907C314.476 16.8806 315.342 20.563 315.342 25.4395H317.342ZM314.549 13.2288C312.714 10.3002 310.538 8.24825 307.988 7.19837L307.227 9.04772C309.281 9.89368 311.168 11.5996 312.854 14.2907L314.549 13.2288ZM307.994 7.20077C305.597 6.19603 303.298 5.67578 301.107 5.67578V7.67578C302.979 7.67578 305.014 8.12037 307.221 9.04532L307.994 7.20077ZM301.107 5.67578C299.421 5.67578 297.688 5.95695 295.911 6.50773L296.503 8.41805C298.112 7.91935 299.645 7.67578 301.107 7.67578V5.67578ZM295.92 6.50506C294.071 7.05974 292.3 8.07654 290.607 9.5203L291.905 11.0422C293.428 9.74377 294.958 8.88167 296.494 8.42072L295.92 6.50506ZM290.603 9.5237C288.865 11.0214 287.473 13.0941 286.397 15.687L288.244 16.4536C289.233 14.07 290.464 12.2833 291.909 11.0388L290.603 9.5237ZM286.397 15.687C285.299 18.3318 284.771 21.5435 284.771 25.2871H286.771C286.771 21.7183 287.276 18.7854 288.244 16.4536L286.397 15.687ZM284.771 25.2871C284.771 28.588 285.205 31.5148 286.098 34.0489L287.984 33.3847C287.184 31.1115 286.771 28.4185 286.771 25.2871H284.771ZM286.101 34.0569C287.003 36.5527 288.249 38.6379 289.855 40.2811L291.285 38.8829C289.913 37.4793 288.805 35.6543 287.981 33.3767L286.101 34.0569ZM289.863 40.2891C291.459 41.8849 293.227 43.0605 295.168 43.793L295.875 41.9218C294.227 41.3002 292.695 40.2922 291.277 38.8749L289.863 40.2891ZM295.179 43.797C297.101 44.4975 299.096 44.8477 301.158 44.8477V42.8477C299.327 42.8477 297.564 42.5376 295.864 41.9179L295.179 43.797ZM301.158 44.8477C303.02 44.8477 304.89 44.5219 306.764 43.8795L306.115 41.9876C304.434 42.564 302.783 42.8477 301.158 42.8477V44.8477ZM306.769 43.8777C308.704 43.2022 310.458 42.1179 312.026 40.6398L310.654 39.1844C309.277 40.4824 307.763 41.4124 306.11 41.9895L306.769 43.8777ZM312.026 40.6396C313.649 39.1092 314.924 37.0753 315.879 34.5823L314.011 33.867C313.138 36.1473 312.01 37.9051 310.654 39.1846L312.026 40.6396ZM315.878 34.5858C316.866 32.0351 317.342 28.9766 317.342 25.4395H315.342C315.342 28.8085 314.887 31.6068 314.013 33.8634L315.878 34.5858Z" fill="black" mask="url(#path-1-outside-1_163_50)"/>
<mask id="path-3-outside-2_163_50" maskUnits="userSpaceOnUse" x="319" y="29.5129" width="114" height="33" fill="black">
<rect fill="white" x="319" y="29.5129" width="114" height="33"/>
<path d="M347.07 31.7434V32.0754C346.341 32.1666 345.736 32.414 345.254 32.8176C344.772 33.2212 344.362 33.7486 344.023 34.3996C343.685 35.0376 343.301 35.8905 342.871 36.9582C342.806 37.0233 342.741 37.1796 342.676 37.427L334.355 61.2746H334.082L324.277 35.4738C324.277 35.4218 324.251 35.3436 324.199 35.2395C323.822 34.1327 323.32 33.3254 322.695 32.8176C322.083 32.3098 321.315 32.0624 320.391 32.0754V31.7434H329.844V32.0754C329.049 32.1535 328.411 32.3098 327.93 32.5442C327.448 32.7785 327.207 33.3384 327.207 34.2238C327.207 34.4582 327.311 34.94 327.52 35.6692C327.546 35.7343 327.565 35.8059 327.578 35.884C327.604 35.9491 327.624 36.0012 327.637 36.0403L335.195 56.2356H335.273L341.758 37.427C342.214 36.1379 342.441 35.1679 342.441 34.5168C342.441 33.4882 342.22 32.8371 341.777 32.5637C341.348 32.2903 340.703 32.1275 339.844 32.0754V31.7434H347.07ZM358.145 31.7434V32.0754C357.285 32.0754 356.556 32.3163 355.957 32.7981C355.358 33.2798 355.059 34.0806 355.059 35.2004V57.0363C355.059 58.1431 355.378 58.9504 356.016 59.4582C356.654 59.953 357.363 60.2004 358.145 60.2004V60.5129H349.023V60.2004C349.857 60.2004 350.573 59.9595 351.172 59.4778C351.784 58.983 352.09 58.1692 352.09 57.0363V35.2004C352.09 34.0025 351.784 33.1822 351.172 32.7395C350.573 32.2968 349.857 32.0754 349.023 32.0754V31.7434H358.145ZM390.84 31.7434V32.0754C390.111 32.1666 389.531 32.3098 389.102 32.5051C388.685 32.6874 388.359 33.0585 388.125 33.6184C387.891 34.1653 387.773 34.9595 387.773 36.0012V61.2356H387.578L365.488 36.5871V54.2824C365.488 55.7538 365.547 56.8475 365.664 57.5637C365.781 58.2798 365.951 58.7942 366.172 59.1067C366.654 59.7837 367.493 60.1483 368.691 60.2004V60.5129H361.484V60.2004C362.292 60.1613 362.917 59.9921 363.359 59.6926C363.815 59.3801 364.134 58.8202 364.316 58.0129C364.512 57.1926 364.609 55.9621 364.609 54.3215V35.552L363.652 34.4778C362.806 33.5142 362.129 32.9087 361.621 32.6613C361.113 32.4009 360.482 32.2056 359.727 32.0754V31.7434H365.137L386.895 56.1184V37.5442C386.895 36.1509 386.836 35.1093 386.719 34.4192C386.615 33.7291 386.322 33.1757 385.84 32.759C385.371 32.3423 384.629 32.1145 383.613 32.0754V31.7434H390.84ZM419.551 38.1887H419.219C418.971 36.7824 418.307 35.591 417.227 34.6145C416.159 33.6379 414.928 32.9283 413.535 32.4856C412.142 32.0298 410.84 31.802 409.629 31.802C407.975 31.802 406.419 32.1535 404.961 32.8567C403.516 33.5468 402.266 34.5298 401.211 35.8059C400.156 37.0689 399.336 38.5923 398.75 40.3762C398.164 42.147 397.871 44.0741 397.871 46.1574C397.871 48.1757 398.151 50.0507 398.711 51.7824C399.284 53.5012 400.111 54.9986 401.191 56.2746C402.285 57.5376 403.548 58.4947 404.98 59.1457C406.413 59.7968 408.001 60.1223 409.746 60.1223C411.204 60.1223 412.806 59.8293 414.551 59.2434C416.296 58.6444 417.871 57.6548 419.277 56.2746V57.3879C417.546 58.7291 415.957 59.7121 414.512 60.3371C413.079 60.9621 411.289 61.2746 409.141 61.2746C406.875 61.2746 404.805 60.8645 402.93 60.0442C401.068 59.2108 399.492 58.091 398.203 56.6848C396.914 55.2785 395.938 53.6965 395.273 51.9387C394.609 50.1809 394.277 48.371 394.277 46.509C394.277 43.7095 394.967 41.1119 396.348 38.716C397.728 36.3072 399.596 34.4061 401.953 33.0129C404.31 31.6067 406.868 30.9035 409.629 30.9035C411.335 30.9035 413.151 31.1574 415.078 31.6653L417.109 32.2317C417.5 32.3098 417.832 32.3488 418.105 32.3488C418.613 32.3488 418.952 32.2772 419.121 32.134C419.29 31.9778 419.421 31.7043 419.512 31.3137H419.824L419.551 38.1887ZM431.543 31.7434V32.0754C430.684 32.0754 429.954 32.3163 429.355 32.7981C428.757 33.2798 428.457 34.0806 428.457 35.2004V57.0363C428.457 58.1431 428.776 58.9504 429.414 59.4582C430.052 59.953 430.762 60.2004 431.543 60.2004V60.5129H422.422V60.2004C423.255 60.2004 423.971 59.9595 424.57 59.4778C425.182 58.983 425.488 58.1692 425.488 57.0363V35.2004C425.488 34.0025 425.182 33.1822 424.57 32.7395C423.971 32.2968 423.255 32.0754 422.422 32.0754V31.7434H431.543Z"/>
</mask>
<path d="M347.07 31.7434V32.0754C346.341 32.1666 345.736 32.414 345.254 32.8176C344.772 33.2212 344.362 33.7486 344.023 34.3996C343.685 35.0376 343.301 35.8905 342.871 36.9582C342.806 37.0233 342.741 37.1796 342.676 37.427L334.355 61.2746H334.082L324.277 35.4738C324.277 35.4218 324.251 35.3436 324.199 35.2395C323.822 34.1327 323.32 33.3254 322.695 32.8176C322.083 32.3098 321.315 32.0624 320.391 32.0754V31.7434H329.844V32.0754C329.049 32.1535 328.411 32.3098 327.93 32.5442C327.448 32.7785 327.207 33.3384 327.207 34.2238C327.207 34.4582 327.311 34.94 327.52 35.6692C327.546 35.7343 327.565 35.8059 327.578 35.884C327.604 35.9491 327.624 36.0012 327.637 36.0403L335.195 56.2356H335.273L341.758 37.427C342.214 36.1379 342.441 35.1679 342.441 34.5168C342.441 33.4882 342.22 32.8371 341.777 32.5637C341.348 32.2903 340.703 32.1275 339.844 32.0754V31.7434H347.07ZM358.145 31.7434V32.0754C357.285 32.0754 356.556 32.3163 355.957 32.7981C355.358 33.2798 355.059 34.0806 355.059 35.2004V57.0363C355.059 58.1431 355.378 58.9504 356.016 59.4582C356.654 59.953 357.363 60.2004 358.145 60.2004V60.5129H349.023V60.2004C349.857 60.2004 350.573 59.9595 351.172 59.4778C351.784 58.983 352.09 58.1692 352.09 57.0363V35.2004C352.09 34.0025 351.784 33.1822 351.172 32.7395C350.573 32.2968 349.857 32.0754 349.023 32.0754V31.7434H358.145ZM390.84 31.7434V32.0754C390.111 32.1666 389.531 32.3098 389.102 32.5051C388.685 32.6874 388.359 33.0585 388.125 33.6184C387.891 34.1653 387.773 34.9595 387.773 36.0012V61.2356H387.578L365.488 36.5871V54.2824C365.488 55.7538 365.547 56.8475 365.664 57.5637C365.781 58.2798 365.951 58.7942 366.172 59.1067C366.654 59.7837 367.493 60.1483 368.691 60.2004V60.5129H361.484V60.2004C362.292 60.1613 362.917 59.9921 363.359 59.6926C363.815 59.3801 364.134 58.8202 364.316 58.0129C364.512 57.1926 364.609 55.9621 364.609 54.3215V35.552L363.652 34.4778C362.806 33.5142 362.129 32.9087 361.621 32.6613C361.113 32.4009 360.482 32.2056 359.727 32.0754V31.7434H365.137L386.895 56.1184V37.5442C386.895 36.1509 386.836 35.1093 386.719 34.4192C386.615 33.7291 386.322 33.1757 385.84 32.759C385.371 32.3423 384.629 32.1145 383.613 32.0754V31.7434H390.84ZM419.551 38.1887H419.219C418.971 36.7824 418.307 35.591 417.227 34.6145C416.159 33.6379 414.928 32.9283 413.535 32.4856C412.142 32.0298 410.84 31.802 409.629 31.802C407.975 31.802 406.419 32.1535 404.961 32.8567C403.516 33.5468 402.266 34.5298 401.211 35.8059C400.156 37.0689 399.336 38.5923 398.75 40.3762C398.164 42.147 397.871 44.0741 397.871 46.1574C397.871 48.1757 398.151 50.0507 398.711 51.7824C399.284 53.5012 400.111 54.9986 401.191 56.2746C402.285 57.5376 403.548 58.4947 404.98 59.1457C406.413 59.7968 408.001 60.1223 409.746 60.1223C411.204 60.1223 412.806 59.8293 414.551 59.2434C416.296 58.6444 417.871 57.6548 419.277 56.2746V57.3879C417.546 58.7291 415.957 59.7121 414.512 60.3371C413.079 60.9621 411.289 61.2746 409.141 61.2746C406.875 61.2746 404.805 60.8645 402.93 60.0442C401.068 59.2108 399.492 58.091 398.203 56.6848C396.914 55.2785 395.938 53.6965 395.273 51.9387C394.609 50.1809 394.277 48.371 394.277 46.509C394.277 43.7095 394.967 41.1119 396.348 38.716C397.728 36.3072 399.596 34.4061 401.953 33.0129C404.31 31.6067 406.868 30.9035 409.629 30.9035C411.335 30.9035 413.151 31.1574 415.078 31.6653L417.109 32.2317C417.5 32.3098 417.832 32.3488 418.105 32.3488C418.613 32.3488 418.952 32.2772 419.121 32.134C419.29 31.9778 419.421 31.7043 419.512 31.3137H419.824L419.551 38.1887ZM431.543 31.7434V32.0754C430.684 32.0754 429.954 32.3163 429.355 32.7981C428.757 33.2798 428.457 34.0806 428.457 35.2004V57.0363C428.457 58.1431 428.776 58.9504 429.414 59.4582C430.052 59.953 430.762 60.2004 431.543 60.2004V60.5129H422.422V60.2004C423.255 60.2004 423.971 59.9595 424.57 59.4778C425.182 58.983 425.488 58.1692 425.488 57.0363V35.2004C425.488 34.0025 425.182 33.1822 424.57 32.7395C423.971 32.2968 423.255 32.0754 422.422 32.0754V31.7434H431.543Z" fill="black"/>
<path d="M347.07 31.7434H348.07V30.7434H347.07V31.7434ZM347.07 32.0754L347.194 33.0677L348.07 32.9582V32.0754H347.07ZM344.023 34.3996L344.907 34.8684L344.911 34.861L344.023 34.3996ZM342.871 36.9582L343.578 37.6653L343.723 37.521L343.799 37.3316L342.871 36.9582ZM342.676 37.427L343.62 37.7564L343.633 37.7194L343.643 37.6815L342.676 37.427ZM334.355 61.2746V62.2746H335.066L335.3 61.604L334.355 61.2746ZM334.082 61.2746L333.147 61.6299L333.392 62.2746H334.082V61.2746ZM324.277 35.4738H323.277V35.6574L323.343 35.8291L324.277 35.4738ZM324.199 35.2395L323.253 35.5624L323.275 35.6263L323.305 35.6867L324.199 35.2395ZM322.695 32.8176L322.057 33.5872L322.065 33.5937L322.695 32.8176ZM320.391 32.0754H319.391V33.0896L320.405 33.0753L320.391 32.0754ZM320.391 31.7434V30.7434H319.391V31.7434H320.391ZM329.844 31.7434H330.844V30.7434H329.844V31.7434ZM329.844 32.0754L329.942 33.0706L330.844 32.9819V32.0754H329.844ZM327.52 35.6692L326.558 35.9439L326.572 35.9931L326.591 36.0405L327.52 35.6692ZM327.578 35.884L326.592 36.0484L326.61 36.155L326.65 36.2554L327.578 35.884ZM327.637 36.0403L326.688 36.3565L326.694 36.3737L326.7 36.3908L327.637 36.0403ZM335.195 56.2356L334.259 56.5861L334.502 57.2356H335.195V56.2356ZM335.273 56.2356V57.2356H335.986L336.219 56.5615L335.273 56.2356ZM341.758 37.427L340.815 37.0936L340.812 37.101L341.758 37.427ZM341.777 32.5637L341.24 33.4074L341.252 33.4145L341.777 32.5637ZM339.844 32.0754H338.844V33.0166L339.783 33.0736L339.844 32.0754ZM339.844 31.7434V30.7434H338.844V31.7434H339.844ZM346.07 31.7434V32.0754H348.07V31.7434H346.07ZM346.946 31.0831C346.059 31.194 345.264 31.5042 344.612 32.0511L345.896 33.5841C346.207 33.3237 346.623 33.1391 347.194 33.0677L346.946 31.0831ZM344.612 32.0511C344.014 32.5523 343.525 33.1897 343.136 33.9383L344.911 34.861C345.198 34.3075 345.531 33.8902 345.896 33.5841L344.612 32.0511ZM343.14 33.9309C342.778 34.6125 342.379 35.5013 341.943 36.5849L343.799 37.3316C344.222 36.2798 344.591 35.4628 344.907 34.8683L343.14 33.9309ZM342.164 36.2511C341.991 36.4238 341.898 36.6249 341.85 36.7396C341.794 36.8756 341.748 37.0244 341.709 37.1725L343.643 37.6815C343.655 37.6338 343.667 37.5955 343.676 37.5655C343.686 37.5351 343.693 37.517 343.697 37.5089C343.7 37.4995 343.697 37.5094 343.684 37.5312C343.677 37.5427 343.666 37.5604 343.65 37.5821C343.634 37.6036 343.611 37.6328 343.578 37.6653L342.164 36.2511ZM341.732 37.0976L333.411 60.9452L335.3 61.604L343.62 37.7564L341.732 37.0976ZM334.355 60.2746H334.082V62.2746H334.355V60.2746ZM335.017 60.9194L325.212 35.1186L323.343 35.8291L333.147 61.6299L335.017 60.9194ZM325.277 35.4738C325.277 35.1669 325.15 34.9043 325.094 34.7923L323.305 35.6867C323.318 35.7123 323.316 35.7124 323.309 35.6924C323.306 35.6815 323.298 35.6587 323.292 35.626C323.286 35.5944 323.277 35.5417 323.277 35.4738H325.277ZM325.146 34.9166C324.733 33.708 324.148 32.7097 323.326 32.0415L322.065 33.5937C322.492 33.9411 322.91 34.5575 323.253 35.5624L325.146 34.9166ZM323.334 32.048C322.51 31.364 321.498 31.0597 320.377 31.0755L320.405 33.0753C321.132 33.0651 321.657 33.2556 322.057 33.5872L323.334 32.048ZM321.391 32.0754V31.7434H319.391V32.0754H321.391ZM320.391 32.7434H329.844V30.7434H320.391V32.7434ZM328.844 31.7434V32.0754H330.844V31.7434H328.844ZM329.746 31.0802C328.886 31.1648 328.119 31.3399 327.492 31.6449L328.367 33.4434C328.704 33.2797 329.213 33.1423 329.942 33.0706L329.746 31.0802ZM327.492 31.6449C326.477 32.1386 326.207 33.2242 326.207 34.2238H328.207C328.207 33.8606 328.258 33.6471 328.306 33.5351C328.329 33.4834 328.347 33.4609 328.353 33.4539C328.358 33.4484 328.361 33.4463 328.367 33.4434L327.492 31.6449ZM326.207 34.2238C326.207 34.4539 326.253 34.7206 326.308 34.9723C326.366 35.2426 326.451 35.5682 326.558 35.9439L328.481 35.3944C328.38 35.041 328.308 34.7611 328.263 34.5496C328.24 34.4441 328.225 34.3626 328.216 34.3021C328.207 34.2376 328.207 34.2158 328.207 34.2238H326.207ZM326.591 36.0405C326.587 36.031 326.589 36.0322 326.592 36.0484L328.565 35.7196C328.541 35.5796 328.504 35.4375 328.448 35.2978L326.591 36.0405ZM326.65 36.2554C326.673 36.313 326.684 36.3444 326.688 36.3565L328.585 35.724C328.563 35.658 328.536 35.5852 328.507 35.5126L326.65 36.2554ZM326.7 36.3908L334.259 56.5861L336.132 55.885L328.573 35.6897L326.7 36.3908ZM335.195 57.2356H335.273V55.2356H335.195V57.2356ZM336.219 56.5615L342.703 37.7529L340.812 37.101L334.328 55.9096L336.219 56.5615ZM342.701 37.7603C343.162 36.4554 343.441 35.349 343.441 34.5168H341.441C341.441 34.9867 341.265 35.8204 340.815 37.0937L342.701 37.7603ZM343.441 34.5168C343.441 33.9418 343.381 33.4022 343.222 32.9351C343.061 32.461 342.778 32.0061 342.303 31.7129L341.252 33.4145C341.22 33.3947 341.268 33.402 341.329 33.579C341.391 33.763 341.441 34.0632 341.441 34.5168H343.441ZM342.314 31.72C341.674 31.3128 340.83 31.1334 339.904 31.0772L339.783 33.0736C340.576 33.1216 341.021 33.2677 341.24 33.4074L342.314 31.72ZM340.844 32.0754V31.7434H338.844V32.0754H340.844ZM339.844 32.7434H347.07V30.7434H339.844V32.7434ZM358.145 31.7434H359.145V30.7434H358.145V31.7434ZM358.145 32.0754V33.0754H359.145V32.0754H358.145ZM356.016 59.4582L355.393 60.2407L355.403 60.2484L356.016 59.4582ZM358.145 60.2004H359.145V59.2004H358.145V60.2004ZM358.145 60.5129V61.5129H359.145V60.5129H358.145ZM349.023 60.5129H348.023V61.5129H349.023V60.5129ZM349.023 60.2004V59.2004H348.023V60.2004H349.023ZM351.172 59.4778L351.799 60.257L351.801 60.2554L351.172 59.4778ZM351.172 32.7395L350.577 33.5437L350.586 33.5497L351.172 32.7395ZM349.023 32.0754H348.023V33.0754H349.023V32.0754ZM349.023 31.7434V30.7434H348.023V31.7434H349.023ZM357.145 31.7434V32.0754H359.145V31.7434H357.145ZM358.145 31.0754C357.086 31.0754 356.128 31.3773 355.33 32.0189L356.584 33.5773C356.984 33.2553 357.485 33.0754 358.145 33.0754V31.0754ZM355.33 32.0189C354.403 32.765 354.059 33.9211 354.059 35.2004H356.059C356.059 34.2402 356.314 33.7947 356.584 33.5773L355.33 32.0189ZM354.059 35.2004V57.0363H356.059V35.2004H354.059ZM354.059 57.0363C354.059 58.3317 354.438 59.481 355.393 60.2406L356.638 58.6758C356.317 58.4198 356.059 57.9545 356.059 57.0363H354.059ZM355.403 60.2484C356.21 60.8743 357.134 61.2004 358.145 61.2004V59.2004C357.593 59.2004 357.097 59.0317 356.628 58.668L355.403 60.2484ZM357.145 60.2004V60.5129H359.145V60.2004H357.145ZM358.145 59.5129H349.023V61.5129H358.145V59.5129ZM350.023 60.5129V60.2004H348.023V60.5129H350.023ZM349.023 61.2004C350.064 61.2004 351.007 60.894 351.799 60.257L350.545 58.6985C350.139 59.0251 349.649 59.2004 349.023 59.2004V61.2004ZM351.801 60.2554C352.737 59.4983 353.09 58.3331 353.09 57.0363H351.09C351.09 58.0052 350.831 58.4676 350.543 58.7001L351.801 60.2554ZM353.09 57.0363V35.2004H351.09V57.0363H353.09ZM353.09 35.2004C353.09 33.8733 352.754 32.6495 351.758 31.9292L350.586 33.5497C350.814 33.7149 351.09 34.1317 351.09 35.2004H353.09ZM351.766 31.9353C350.975 31.3504 350.044 31.0754 349.023 31.0754V33.0754C349.669 33.0754 350.171 33.2431 350.577 33.5436L351.766 31.9353ZM350.023 32.0754V31.7434H348.023V32.0754H350.023ZM349.023 32.7434H358.145V30.7434H349.023V32.7434ZM390.84 31.7434H391.84V30.7434H390.84V31.7434ZM390.84 32.0754L390.964 33.0677L391.84 32.9582V32.0754H390.84ZM389.102 32.5051L389.502 33.4213L389.509 33.4184L389.515 33.4155L389.102 32.5051ZM388.125 33.6184L389.044 34.0123L389.047 34.0045L388.125 33.6184ZM387.773 61.2356V62.2356H388.773V61.2356H387.773ZM387.578 61.2356L386.833 61.903L387.132 62.2356H387.578V61.2356ZM365.488 36.5871L366.233 35.9197L364.488 33.9729V36.5871H365.488ZM366.172 59.1067L365.356 59.6847L365.357 59.6864L366.172 59.1067ZM368.691 60.2004H369.691V59.2429L368.735 59.2014L368.691 60.2004ZM368.691 60.5129V61.5129H369.691V60.5129H368.691ZM361.484 60.5129H360.484V61.5129H361.484V60.5129ZM361.484 60.2004L361.436 59.2016L360.484 59.2476V60.2004H361.484ZM363.359 59.6926L363.92 60.5209L363.925 60.5173L363.359 59.6926ZM364.316 58.0129L363.344 57.7813L363.341 57.7926L364.316 58.0129ZM364.609 35.552H365.609V35.1711L365.356 34.8868L364.609 35.552ZM363.652 34.4778L362.901 35.1377L362.906 35.143L363.652 34.4778ZM361.621 32.6613L361.165 33.5512L361.174 33.5558L361.183 33.5603L361.621 32.6613ZM359.727 32.0754H358.727V32.9177L359.557 33.0609L359.727 32.0754ZM359.727 31.7434V30.7434H358.727V31.7434H359.727ZM365.137 31.7434L365.883 31.0775L365.585 30.7434H365.137V31.7434ZM386.895 56.1184L386.149 56.7843L387.895 58.7403V56.1184H386.895ZM386.719 34.4192L385.73 34.5684L385.731 34.5775L385.733 34.5866L386.719 34.4192ZM385.84 32.759L385.175 33.5065L385.186 33.5154L385.84 32.759ZM383.613 32.0754H382.613V33.0377L383.575 33.0747L383.613 32.0754ZM383.613 31.7434V30.7434H382.613V31.7434H383.613ZM389.84 31.7434V32.0754H391.84V31.7434H389.84ZM390.716 31.0831C389.936 31.1806 389.246 31.3412 388.688 31.5947L389.515 33.4155C389.817 33.2784 390.286 33.1525 390.964 33.0677L390.716 31.0831ZM388.701 31.5889C387.979 31.9049 387.502 32.5166 387.203 33.2322L389.047 34.0045C389.217 33.6004 389.391 33.4699 389.502 33.4213L388.701 31.5889ZM387.206 33.2245C386.892 33.9562 386.773 34.9106 386.773 36.0012H388.773C388.773 35.0084 388.889 34.3743 389.044 34.0123L387.206 33.2245ZM386.773 36.0012V61.2356H388.773V36.0012H386.773ZM387.773 60.2356H387.578V62.2356H387.773V60.2356ZM388.323 60.5682L366.233 35.9197L364.744 37.2545L386.833 61.903L388.323 60.5682ZM364.488 36.5871V54.2824H366.488V36.5871H364.488ZM364.488 54.2824C364.488 55.7647 364.546 56.9254 364.677 57.7252L366.651 57.4022C366.547 56.7697 366.488 55.7428 366.488 54.2824H364.488ZM364.677 57.7252C364.801 58.4803 364.999 59.1809 365.356 59.6847L366.988 58.5286C366.902 58.4075 366.762 58.0794 366.651 57.4022L364.677 57.7252ZM365.357 59.6864C366.087 60.7117 367.285 61.1402 368.648 61.1995L368.735 59.2014C367.702 59.1565 367.221 58.8558 366.987 58.5269L365.357 59.6864ZM367.691 60.2004V60.5129H369.691V60.2004H367.691ZM368.691 59.5129H361.484V61.5129H368.691V59.5129ZM362.484 60.5129V60.2004H360.484V60.5129H362.484ZM361.533 61.1992C362.436 61.1555 363.266 60.9628 363.92 60.5209L362.799 58.8643C362.567 59.0214 362.147 59.1672 361.436 59.2016L361.533 61.1992ZM363.925 60.5173C364.671 60.0054 365.081 59.1667 365.292 58.2332L363.341 57.7926C363.187 58.4737 362.959 58.7548 362.794 58.8679L363.925 60.5173ZM365.289 58.2445C365.512 57.307 365.609 55.9815 365.609 54.3215H363.609C363.609 55.9428 363.511 57.0782 363.344 57.7813L365.289 58.2445ZM365.609 54.3215V35.552H363.609V54.3215H365.609ZM365.356 34.8868L364.399 33.8125L362.906 35.143L363.863 36.2172L365.356 34.8868ZM364.404 33.8178C363.553 32.8496 362.763 32.1052 362.059 31.7624L361.183 33.5603C361.495 33.7123 362.059 34.1789 362.901 35.1377L364.404 33.8178ZM362.077 31.7715C361.455 31.4522 360.72 31.2319 359.896 31.0899L359.557 33.0609C360.244 33.1794 360.772 33.3497 361.165 33.5512L362.077 31.7715ZM360.727 32.0754V31.7434H358.727V32.0754H360.727ZM359.727 32.7434H365.137V30.7434H359.727V32.7434ZM364.391 32.4093L386.149 56.7843L387.641 55.4525L365.883 31.0775L364.391 32.4093ZM387.895 56.1184V37.5442H385.895V56.1184H387.895ZM387.895 37.5442C387.895 36.1384 387.836 35.0279 387.705 34.2517L385.733 34.5866C385.835 35.1906 385.895 36.1635 385.895 37.5442H387.895ZM387.708 34.2699C387.571 33.3683 387.174 32.5906 386.494 32.0026L385.186 33.5154C385.469 33.7607 385.658 34.0898 385.73 34.5684L387.708 34.2699ZM386.504 32.0116C385.783 31.3708 384.765 31.119 383.652 31.0761L383.575 33.0747C384.493 33.11 384.959 33.3138 385.175 33.5064L386.504 32.0116ZM384.613 32.0754V31.7434H382.613V32.0754H384.613ZM383.613 32.7434H390.84V30.7434H383.613V32.7434ZM419.551 38.1887V39.1887H420.512L420.55 38.2284L419.551 38.1887ZM419.219 38.1887L418.234 38.362L418.379 39.1887H419.219V38.1887ZM417.227 34.6145L416.552 35.3524L416.556 35.3564L417.227 34.6145ZM413.535 32.4856L413.224 33.436L413.232 33.4386L413.535 32.4856ZM404.961 32.8567L405.392 33.7591L405.395 33.7574L404.961 32.8567ZM401.211 35.8059L401.979 36.4468L401.982 36.443L401.211 35.8059ZM398.75 40.3762L399.699 40.6903L399.7 40.6883L398.75 40.3762ZM398.711 51.7824L397.759 52.0901L397.762 52.0987L398.711 51.7824ZM401.191 56.2746L400.428 56.921L400.435 56.9293L401.191 56.2746ZM414.551 59.2434L414.869 60.1914L414.875 60.1892L414.551 59.2434ZM419.277 56.2746H420.277V53.892L418.577 55.5609L419.277 56.2746ZM419.277 57.3879L419.89 58.1785L420.277 57.8783V57.3879H419.277ZM414.512 60.3371L414.115 59.4193L414.112 59.4206L414.512 60.3371ZM402.93 60.0442L402.521 60.9569L402.529 60.9603L402.93 60.0442ZM396.348 38.716L397.214 39.2152L397.215 39.2132L396.348 38.716ZM401.953 33.0129L402.462 33.8737L402.466 33.8717L401.953 33.0129ZM415.078 31.6653L415.347 30.702L415.34 30.7001L415.333 30.6983L415.078 31.6653ZM417.109 32.2317L416.841 33.1949L416.877 33.2049L416.913 33.2122L417.109 32.2317ZM419.121 32.134L419.767 32.8974L419.784 32.8834L419.799 32.8688L419.121 32.134ZM419.512 31.3137V30.3137H418.718L418.538 31.0865L419.512 31.3137ZM419.824 31.3137L420.823 31.3534L420.865 30.3137H419.824V31.3137ZM419.551 37.1887H419.219V39.1887H419.551V37.1887ZM420.204 38.0154C419.917 36.3852 419.139 34.9951 417.897 33.8725L416.556 35.3564C417.475 36.187 418.026 37.1797 418.234 38.362L420.204 38.0154ZM417.901 33.8766C416.726 32.8011 415.368 32.0187 413.838 31.5325L413.232 33.4386C414.489 33.8379 415.592 34.4747 416.552 35.3524L417.901 33.8766ZM413.846 31.5351C412.373 31.0532 410.965 30.802 409.629 30.802V32.802C410.715 32.802 411.911 33.0064 413.224 33.436L413.846 31.5351ZM409.629 30.802C407.828 30.802 406.123 31.186 404.527 31.9559L405.395 33.7574C406.715 33.121 408.122 32.802 409.629 32.802V30.802ZM404.53 31.9542C402.949 32.7092 401.584 33.7845 400.44 35.1688L401.982 36.443C402.947 35.2752 404.082 34.3844 405.392 33.7591L404.53 31.9542ZM400.443 35.1649C399.297 36.5378 398.42 38.1769 397.8 40.0641L399.7 40.6883C400.252 39.0078 401.016 37.6 401.979 36.4468L400.443 35.1649ZM397.801 40.0621C397.177 41.9453 396.871 43.9797 396.871 46.1574H398.871C398.871 44.1685 399.151 42.3487 399.699 40.6903L397.801 40.0621ZM396.871 46.1574C396.871 48.2688 397.164 50.2487 397.759 52.0901L399.662 51.4748C399.138 49.8526 398.871 48.0825 398.871 46.1574H396.871ZM397.762 52.0987C398.372 53.9281 399.259 55.5398 400.428 56.9209L401.954 55.6283C400.963 54.4573 400.196 53.0743 399.66 51.4662L397.762 52.0987ZM400.435 56.9293C401.618 58.2943 402.995 59.3418 404.567 60.0561L405.394 58.2354C404.101 57.6476 402.953 56.781 401.947 55.62L400.435 56.9293ZM404.567 60.0561C406.142 60.7724 407.874 61.1223 409.746 61.1223V59.1223C408.128 59.1223 406.683 58.8212 405.394 58.2354L404.567 60.0561ZM409.746 61.1223C411.337 61.1223 413.047 60.8031 414.869 60.1914L414.232 58.2954C412.565 58.8555 411.072 59.1223 409.746 59.1223V61.1223ZM414.875 60.1892C416.771 59.5386 418.473 58.4657 419.978 56.9883L418.577 55.5609C417.27 56.844 415.82 57.7503 414.226 58.2976L414.875 60.1892ZM418.277 56.2746V57.3879H420.277V56.2746H418.277ZM418.665 56.5973C416.976 57.9055 415.46 58.8376 414.115 59.4193L414.909 61.255C416.454 60.5867 418.115 59.5526 419.89 58.1785L418.665 56.5973ZM414.112 59.4206C412.843 59.974 411.2 60.2746 409.141 60.2746V62.2746C411.378 62.2746 413.315 61.9502 414.912 61.2537L414.112 59.4206ZM409.141 60.2746C406.998 60.2746 405.066 59.8874 403.331 59.128L402.529 60.9603C404.543 61.8416 406.752 62.2746 409.141 62.2746V60.2746ZM403.338 59.1314C401.592 58.3499 400.131 57.3079 398.94 56.0091L397.466 57.3605C398.854 58.8742 400.543 60.0717 402.521 60.9569L403.338 59.1314ZM398.94 56.0091C397.736 54.6952 396.827 53.2222 396.209 51.5853L394.338 52.2921C395.048 54.1708 396.092 55.8619 397.466 57.3605L398.94 56.0091ZM396.209 51.5853C395.587 49.9394 395.277 48.2491 395.277 46.509H393.277C393.277 48.4928 393.632 50.4224 394.338 52.2921L396.209 51.5853ZM395.277 46.509C395.277 43.8824 395.923 41.4572 397.214 39.2152L395.481 38.2169C394.012 40.7665 393.277 43.5366 393.277 46.509H395.277ZM397.215 39.2132C398.511 36.9524 400.256 35.1776 402.462 33.8737L401.444 32.1521C398.936 33.6347 396.945 35.662 395.48 38.2189L397.215 39.2132ZM402.466 33.8717C404.666 32.5584 407.048 31.9035 409.629 31.9035V29.9035C406.689 29.9035 403.953 30.6549 401.441 32.1542L402.466 33.8717ZM409.629 31.9035C411.236 31.9035 412.966 32.1428 414.823 32.6322L415.333 30.6983C413.336 30.1721 411.434 29.9035 409.629 29.9035V31.9035ZM414.81 32.6285L416.841 33.1949L417.378 31.2684L415.347 30.702L414.81 32.6285ZM416.913 33.2122C417.342 33.298 417.744 33.3488 418.105 33.3488V31.3488C417.92 31.3488 417.658 31.3216 417.305 31.2511L416.913 33.2122ZM418.105 33.3488C418.4 33.3488 418.686 33.3287 418.947 33.2735C419.196 33.2208 419.505 33.1194 419.767 32.8974L418.475 31.3706C418.526 31.3277 418.565 31.3103 418.573 31.307C418.581 31.3036 418.57 31.3089 418.533 31.3168C418.456 31.3332 418.319 31.3488 418.105 31.3488V33.3488ZM419.799 32.8688C420.189 32.509 420.379 31.9989 420.486 31.5409L418.538 31.0865C418.504 31.2329 418.469 31.3269 418.443 31.3818C418.416 31.4378 418.409 31.43 418.443 31.3992L419.799 32.8688ZM419.512 32.3137H419.824V30.3137H419.512V32.3137ZM418.825 31.2739L418.552 38.1489L420.55 38.2284L420.823 31.3534L418.825 31.2739ZM431.543 31.7434H432.543V30.7434H431.543V31.7434ZM431.543 32.0754V33.0754H432.543V32.0754H431.543ZM429.414 59.4582L428.791 60.2407L428.801 60.2484L429.414 59.4582ZM431.543 60.2004H432.543V59.2004H431.543V60.2004ZM431.543 60.5129V61.5129H432.543V60.5129H431.543ZM422.422 60.5129H421.422V61.5129H422.422V60.5129ZM422.422 60.2004V59.2004H421.422V60.2004H422.422ZM424.57 59.4778L425.197 60.257L425.199 60.2554L424.57 59.4778ZM424.57 32.7395L423.976 33.5437L423.984 33.5497L424.57 32.7395ZM422.422 32.0754H421.422V33.0754H422.422V32.0754ZM422.422 31.7434V30.7434H421.422V31.7434H422.422ZM430.543 31.7434V32.0754H432.543V31.7434H430.543ZM431.543 31.0754C430.484 31.0754 429.526 31.3773 428.729 32.0189L429.982 33.5773C430.383 33.2553 430.883 33.0754 431.543 33.0754V31.0754ZM428.729 32.0189C427.801 32.765 427.457 33.9211 427.457 35.2004H429.457C429.457 34.2402 429.712 33.7947 429.982 33.5773L428.729 32.0189ZM427.457 35.2004V57.0363H429.457V35.2004H427.457ZM427.457 57.0363C427.457 58.3317 427.837 59.481 428.791 60.2406L430.037 58.6758C429.715 58.4198 429.457 57.9545 429.457 57.0363H427.457ZM428.801 60.2484C429.608 60.8743 430.532 61.2004 431.543 61.2004V59.2004C430.991 59.2004 430.496 59.0317 430.027 58.668L428.801 60.2484ZM430.543 60.2004V60.5129H432.543V60.2004H430.543ZM431.543 59.5129H422.422V61.5129H431.543V59.5129ZM423.422 60.5129V60.2004H421.422V60.5129H423.422ZM422.422 61.2004C423.463 61.2004 424.405 60.894 425.197 60.257L423.944 58.6985C423.538 59.0251 423.048 59.2004 422.422 59.2004V61.2004ZM425.199 60.2554C426.135 59.4983 426.488 58.3331 426.488 57.0363H424.488C424.488 58.0052 424.229 58.4676 423.942 58.7001L425.199 60.2554ZM426.488 57.0363V35.2004H424.488V57.0363H426.488ZM426.488 35.2004C426.488 33.8733 426.152 32.6495 425.156 31.9292L423.984 33.5497C424.212 33.7149 424.488 34.1317 424.488 35.2004H426.488ZM425.165 31.9353C424.373 31.3504 423.443 31.0754 422.422 31.0754V33.0754C423.068 33.0754 423.569 33.2431 423.976 33.5436L425.165 31.9353ZM423.422 32.0754V31.7434H421.422V32.0754H423.422ZM422.422 32.7434H431.543V30.7434H422.422V32.7434Z" fill="black" mask="url(#path-3-outside-2_163_50)"/>
</svg>
