<svg width="80" height="80" viewBox="0 0 59 76" fill="none" xmlns="http://www.w3.org/2000/svg">
<path d="M34.9121 32.999H34.2041C33.2601 30.5088 31.6813 28.4906 29.4678 26.9443C27.2705 25.3818 24.6989 24.6006 21.7529 24.6006C19.4743 24.6006 17.5781 25.0889 16.0645 26.0654C14.5508 27.042 13.3708 28.3441 12.5244 29.9717C11.6943 31.583 11.1165 33.3327 10.791 35.2207C10.4655 37.1087 10.3027 39.1025 10.3027 41.2021C10.3027 46.4105 11.3363 50.4144 13.4033 53.2139C15.4867 55.9971 18.2861 57.3887 21.8018 57.3887C24.3245 57.3887 25.9033 57.0143 26.5381 56.2656C27.1729 55.5169 27.4902 54.4102 27.4902 52.9453V48.7949C27.4902 47.9648 27.4251 47.2324 27.2949 46.5977C27.1647 45.9629 26.8229 45.3851 26.2695 44.8643C25.7324 44.3271 24.9105 44.026 23.8037 43.9609V43.2041H38.7939V43.9609C36.5967 44.2539 35.498 45.5967 35.498 47.9893V56.7539C31.6569 58.5117 27.3112 59.3906 22.4609 59.3906C20.5078 59.3906 18.7337 59.2604 17.1387 59C15.5599 58.7233 14.152 58.349 12.915 57.877C11.6781 57.3887 10.6364 56.8678 9.79004 56.3145C8.94368 55.7448 8.14616 55.11 7.39746 54.4102C6.37207 53.4336 5.45247 52.3105 4.63867 51.041C3.84115 49.7715 3.18197 48.2985 2.66113 46.6221C2.15658 44.9294 1.9043 43.0739 1.9043 41.0557C1.9043 38.3376 2.38444 35.8555 3.34473 33.6094C4.32129 31.3633 5.69661 29.4183 7.4707 27.7744C9.24479 26.1143 11.2712 24.8529 13.5498 23.9902C15.8447 23.1276 18.2617 22.6963 20.8008 22.6963C22.2331 22.6963 23.4701 22.7939 24.5117 22.9893C25.5534 23.1846 27.3031 23.6077 29.7607 24.2588C30.542 24.5192 31.3883 24.6494 32.2998 24.6494C33.2601 24.6494 33.8949 24.0146 34.2041 22.7451H34.9121V32.999Z" fill="white"/>
<path d="M57.3037 7.03809V7.74609C55.9854 7.94141 54.846 8.4541 53.8857 9.28418C52.9417 10.098 51.9652 11.9372 50.9561 14.8018L40.751 43.3906H39.7988L27.543 12.5068C26.957 10.9443 26.2327 9.78874 25.3701 9.04004C24.5238 8.29134 23.2868 7.86003 21.6592 7.74609V7.03809H38.0898V7.74609C37.276 7.79492 36.6169 7.93327 36.1123 8.16113C35.6077 8.37272 35.3555 8.91797 35.3555 9.79688C35.3555 10.4154 35.5671 11.2536 35.9902 12.3115L42.9971 30.0605L48.5879 14.3379C49.0599 13.0846 49.2959 11.9535 49.2959 10.9443C49.2959 10.3747 49.0762 9.73991 48.6367 9.04004C48.1973 8.34017 47.2044 7.90885 45.6582 7.74609V7.03809H57.3037Z" fill="white"/>
</svg>
