<svg width="40" height="40" viewBox="0 0 40 40" fill="none" xmlns="http://www.w3.org/2000/svg">
<path d="M6.66669 30C6.66669 28.2319 7.36907 26.5362 8.61931 25.2859C9.86955 24.0357 11.5652 23.3333 13.3334 23.3333H26.6667C28.4348 23.3333 30.1305 24.0357 31.3807 25.2859C32.631 26.5362 33.3334 28.2319 33.3334 30C33.3334 30.884 32.9822 31.7319 32.357 32.357C31.7319 32.9821 30.8841 33.3333 30 33.3333H10C9.11597 33.3333 8.26812 32.9821 7.643 32.357C7.01788 31.7319 6.66669 30.884 6.66669 30Z" stroke="black" stroke-width="2.5" stroke-linejoin="round"/>
<path d="M20 16.6667C22.7614 16.6667 25 14.4281 25 11.6667C25 8.90523 22.7614 6.66666 20 6.66666C17.2386 6.66666 15 8.90523 15 11.6667C15 14.4281 17.2386 16.6667 20 16.6667Z" stroke="black" stroke-width="2.5"/>
</svg>
