<svg width="40" height="40" viewBox="0 0 40 40" fill="none" xmlns="http://www.w3.org/2000/svg">
<path d="M11.6667 36.6667C10.75 36.6667 9.96499 36.34 9.31166 35.6867C8.65832 35.0333 8.33221 34.2489 8.33332 33.3333C8.33332 32.4167 8.65999 31.6317 9.31332 30.9783C9.96666 30.325 10.7511 29.9989 11.6667 30C12.5833 30 13.3683 30.3267 14.0217 30.98C14.675 31.6333 15.0011 32.4178 15 33.3333C15 34.25 14.6733 35.035 14.02 35.6883C13.3667 36.3417 12.5822 36.6678 11.6667 36.6667ZM28.3333 36.6667C27.4167 36.6667 26.6317 36.34 25.9783 35.6867C25.325 35.0333 24.9989 34.2489 25 33.3333C25 32.4167 25.3267 31.6317 25.98 30.9783C26.6333 30.325 27.4178 29.9989 28.3333 30C29.25 30 30.035 30.3267 30.6883 30.98C31.3417 31.6333 31.6678 32.4178 31.6667 33.3333C31.6667 34.25 31.34 35.035 30.6867 35.6883C30.0333 36.3417 29.2489 36.6678 28.3333 36.6667ZM10.25 10L14.25 18.3333H25.9167L30.5 10H10.25ZM8.66666 6.66668H33.25C33.8889 6.66668 34.375 6.95168 34.7083 7.52168C35.0417 8.09168 35.0555 8.66779 34.75 9.25001L28.8333 19.9167C28.5278 20.4722 28.1178 20.9028 27.6033 21.2083C27.0889 21.5139 26.5267 21.6667 25.9167 21.6667H13.5L11.6667 25H31.6667V28.3333H11.6667C10.4167 28.3333 9.47221 27.7845 8.83332 26.6867C8.19443 25.5889 8.16666 24.4989 8.74999 23.4167L11 19.3333L4.99999 6.66668H1.66666V3.33334H7.08332L8.66666 6.66668Z" fill="black"/>
</svg>
